<svg xmlns="http://www.w3.org/2000/svg" viewBox="0 0 23.43 29.54"><defs><style>.cls-1{fill:#eeead9;}.cls-2{fill:#c3bca3;}.cls-3{fill:#d0c9ad;}</style></defs><title>archive-icon</title><g id="Capa_2" data-name="Capa 2"><g id="Controles_bootstrap" data-name="Controles bootstrap"><polygon class="cls-1" points="23.43 9.68 16.3 2.55 2.55 2.55 2.55 29.54 23.43 29.54 23.43 9.68"/><polygon class="cls-2" points="2.55 2.55 16.3 2.55 20.88 7.13 20.88 0 0 0 0 27 2.55 27 2.55 2.55"/><path class="cls-3" d="M6.62,13.24H19.36a.51.51,0,0,0,.51-.51.51.51,0,0,0-.51-.51H6.62a.51.51,0,0,0-.51.51A.51.51,0,0,0,6.62,13.24Z"/><path class="cls-3" d="M6.62,9.17h5.1a.51.51,0,0,0,0-1H6.62a.51.51,0,1,0,0,1Z"/><path class="cls-3" d="M19.36,16.3H6.62a.51.51,0,1,0,0,1H19.36a.51.51,0,1,0,0-1Z"/><path class="cls-3" d="M19.36,20.37H6.62a.51.51,0,0,0-.51.51.51.51,0,0,0,.51.51H19.36a.51.51,0,0,0,.51-.51A.51.51,0,0,0,19.36,20.37Z"/><path class="cls-3" d="M19.36,24.45H6.62a.51.51,0,0,0,0,1H19.36a.51.51,0,1,0,0-1Z"/><polygon class="cls-3" points="16.3 2.55 16.3 9.68 23.43 9.68 16.3 2.55"/></g></g></svg>