<svg xmlns="http://www.w3.org/2000/svg" viewBox="0 0 34.27 33.96"><defs><style>.cls-1{fill:#e5eced;}.cls-2{fill:#c6cac7;}</style></defs><title>tutorial-icon</title><g id="Capa_2" data-name="Capa 2"><g id="Controles_bootstrap" data-name="Controles bootstrap"><path class="cls-1" d="M33.09,13.72H31.25A13.89,13.89,0,0,0,29.44,9.4l1.31-1.3a1.15,1.15,0,0,0,0-1.64l-3-3a1.17,1.17,0,0,0-1.66,0L24.78,4.78A14.37,14.37,0,0,0,20.43,3V1.16A1.17,1.17,0,0,0,19.25,0H15a1.16,1.16,0,0,0-1.17,1.16V3A14.43,14.43,0,0,0,9.48,4.78L8.18,3.49a1.17,1.17,0,0,0-1.66,0l-3,3a1.16,1.16,0,0,0,0,1.65L4.82,9.4A14.12,14.12,0,0,0,3,13.72H1.17A1.17,1.17,0,0,0,0,14.88v4.2a1.17,1.17,0,0,0,1.17,1.17H3a14.33,14.33,0,0,0,1.8,4.32l-1.3,1.29a1.15,1.15,0,0,0,0,1.64l3,3a1.19,1.19,0,0,0,1.66,0l1.3-1.3A14.43,14.43,0,0,0,13.84,31V32.8A1.16,1.16,0,0,0,15,34h4.24a1.17,1.17,0,0,0,1.18-1.16V31a14.53,14.53,0,0,0,4.36-1.79l1.3,1.3a1.19,1.19,0,0,0,1.66,0l3-3a1.15,1.15,0,0,0,0-1.64l-1.3-1.29a14.33,14.33,0,0,0,1.8-4.32h1.84a1.17,1.17,0,0,0,1.18-1.17v-4.2A1.17,1.17,0,0,0,33.09,13.72Zm-16,9.14A5.88,5.88,0,1,1,23.06,17,5.91,5.91,0,0,1,17.13,22.86Z"/><path class="cls-2" d="M17.13,8.49A8.49,8.49,0,1,0,25.7,17,8.52,8.52,0,0,0,17.13,8.49Zm0,14.37A5.88,5.88,0,1,1,23.06,17,5.91,5.91,0,0,1,17.13,22.86Z"/></g></g></svg>