<svg xmlns="http://www.w3.org/2000/svg" viewBox="0 0 1920 895.12"><defs><style>.cls-1{fill:#7d9091;}.cls-2{opacity:0.13;}.cls-3{fill:#fff;}.cls-4{fill:#fcfcfc;}</style></defs><title>header-fixed-2</title><g id="Capa_2" data-name="Capa 2"><g id="Capa_1-2" data-name="Capa 1"><path class="cls-1" d="M0,652.65V0H1920V828c-30.67,12.67-332.47,70.07-511,67-68.87-1.18-116.7-4.91-244-14-205.2-14.66-416.7-29-467-32-159.44-9.62-391.9-8.17-698,45"/><g class="cls-2"><path class="cls-3" d="M606,327.48a5.43,5.43,0,0,0-5.41-5.41H525a5.38,5.38,0,0,0-5.42,5.41v26.94a5.37,5.37,0,0,0,5.42,5.35h75.6a5.43,5.43,0,0,0,5.42-5.42V327.48Zm-1.37,26.87a4.05,4.05,0,0,1-4,4H525a4,4,0,0,1-4-4V327.48a4,4,0,0,1,4-4h75.54a4,4,0,0,1,4,4Zm-65.12-26.11h-4.11v6.3a8.9,8.9,0,0,0-1.78-.2c-4.19,0-6.93,2.67-6.93,6.78s2.68,6.45,7.54,6.45a26.31,26.31,0,0,0,5.35-.55V328.24Zm-4.11,16c-.69.07-1,.14-1.44.14a2.94,2.94,0,0,1-3.22-3.29c0-2.2,1.23-3.43,3.29-3.43a7,7,0,0,1,1.44.2v6.38Zm6.17-16h4.11v4.11h-4.11Zm0,14.32c0,3.5-.14,4.8-.69,6a5.76,5.76,0,0,1-3.15,2.67l3.77,1.78a6.44,6.44,0,0,0,3.29-2.94c.68-1.31,1-2.88,1-6.1v-9.53H541.6v8.15Zm12-8.22a11.52,11.52,0,0,0-5.14,1.23v3.09a8.63,8.63,0,0,1,4.39-1.24c1,0,1.1.28,1.1,1v.89c-4.12.42-6.79,1.72-6.79,4.53,0,2.6,1.3,3.77,4.66,3.77a46.89,46.89,0,0,0,5.55-.41V339c0-1.65.28-2.47-.07-3.08C556.61,334.89,555.58,334.34,553.52,334.34Zm.35,10.28a7.68,7.68,0,0,1-1.72.21c-1.1,0-1.71-.35-1.71-1.17,0-1,1.37-1.44,3.43-1.71Zm12-10.28a27.92,27.92,0,0,0-6.51.89v12.2h4.11V337.9a7.5,7.5,0,0,1,2-.27c1.44,0,2.12.55,2.12,2.12v7.68h4.12v-7.88a4.93,4.93,0,0,0-1.24-3.84A6.55,6.55,0,0,0,565.86,334.34Zm19.88,3.49,1.44-2.87a23.17,23.17,0,0,0-5.21-.55c-5.9,0-9.19,2.6-9.19,7.13,0,3.7,2.27,6,5.76,6a5.1,5.1,0,0,0,2.61-.55v.07c0,2.53-1.24,3.63-3.84,3.63a9,9,0,0,1-4.39-1.1v3.71a11.75,11.75,0,0,0,4.39.75c3.08,0,5.41-1,6.65-2.95.89-1.3,1.3-2.94,1.3-6.37v-1.1l-.14-1.64-.13-2.13-.28-1.71v-.41C586.08,337.83,584.71,337.63,585.74,337.83Zm-4.46,5.9V344a6.91,6.91,0,0,1-1.5.28c-1.79,0-2.75-1.17-2.75-3.16a3.44,3.44,0,0,1,1.44-3.15,4.57,4.57,0,0,1,2.33-.82h.48Zm12.27-9.39c-4.11,0-6.64,2.6-6.64,6.85,0,4.05,2.46,6.58,6.51,6.58s6.65-2.6,6.65-6.85S597.53,334.34,593.55,334.34Zm-.06,10.21c-1.58,0-2.47-1.3-2.47-3.49s.89-3.5,2.53-3.5,2.4,1.3,2.4,3.5S595,344.55,593.49,344.55Z"/><path class="cls-3" d="M823.36,293.05c4.94-.42,6.33-3.59,12.12-4.14,2.82-.25,4.64.34,4.81,1.31s-1.23,1.56-3,1.69c-2.36.25-3.37-.64-3.54-1.44-1.73.17-2,.93-1.95,1.48.17,1,2.33,2,6,1.65,4.14-.34,5.49-2,5.15-3.59-.42-2.11-3.59-3.89-9.29-3.38-7.31.68-7.26,4-12.2,4.43-2,.17-3.17-.29-3.38-1.09s.84-1.19,2-1.27a6.47,6.47,0,0,1,3,.42c.46-.25.63-.46.54-.76-.16-.76-1.68-1.1-3.58-.93-3.68.34-3.68,2-3.55,2.7C817,292.12,819.85,293.39,823.36,293.05Zm24.74,8.36a78.63,78.63,0,0,1-17.4,1.73,84.13,84.13,0,0,1-17.52-1.73c-4-1.06-6.25-2.2-7-3.38a39.2,39.2,0,0,0,1.94,7.69,11.31,11.31,0,0,0-2.83,2.53,9.89,9.89,0,0,0-2.19,6.71,7.7,7.7,0,0,0,3.08,5.7,7.43,7.43,0,0,0,6.25,1.48,23.1,23.1,0,0,0,2.79-.89,7.89,7.89,0,0,1-5.11-1.9,7.59,7.59,0,0,1-3.21-5.23,7,7,0,0,1,1.14-5.58,5.34,5.34,0,0,1,.8-.84,39.71,39.71,0,0,0,2.2,4.6c1.73,2.66,3.5,5,5.23,7.48a19,19,0,0,1,1.61,4.39,8.78,8.78,0,0,0,4.81,3.33,23,23,0,0,0,7.77,1.23h.3a26,26,0,0,0,8-1.27,9,9,0,0,0,4.69-3.38h.12a21.53,21.53,0,0,1,1.48-4.35c1.73-2.49,3.51-4.81,5.24-7.47a45.56,45.56,0,0,0,4.81-14.19C854.22,299.34,852,300.52,848.1,301.41Zm-34.92-3.67a73.55,73.55,0,0,0,17.4,1.73A75.44,75.44,0,0,0,848,297.74c4.82-1.15,7.14-2.67,7.14-4.06,0-1.05-1.06-2-3-2.79a1.62,1.62,0,0,1,.76,1.27c0,1.48-2.19,2.66-6.58,3.63a73.69,73.69,0,0,1-15.63,1.52,75.89,75.89,0,0,1-15.49-1.48c-4.23-1.05-6.46-2.19-6.46-3.63,0-.63.29-1.14,1.14-1.73-2.66,1.06-4.06,1.9-4.06,3.21C806,295.16,808.32,296.64,813.18,297.74Z"/><path class="cls-3" d="M1065.13,465.33a12.82,12.82,0,0,0,3-8.29,13,13,0,0,0-13-13H1039.8a29.41,29.41,0,0,1,9,9.39h6.37a3.61,3.61,0,1,1,0,7.21h-3.76a26.89,26.89,0,0,1,.46,4.73,25.06,25.06,0,0,1-.44,4.66h3.74a3.79,3.79,0,0,1,0,7.58h-6.33c-.47.72-1,1.71-1.58,2.52a25.59,25.59,0,0,1-7.31,6.86h15.22a13.18,13.18,0,0,0,13-12.59c0,.11,0,.14,0,.25,0-.3,0-.65,0-1a13.09,13.09,0,0,0-3-8.37Z"/><path class="cls-3" d="M1044.51,477.45v-.06s0-.11.08-.14a1.09,1.09,0,0,1,.08-.15h0a21.12,21.12,0,0,0,3.51-11.69,21.38,21.38,0,0,0-21.38-21.35h-3.95v9.39h3.95a12,12,0,0,1,12,12,11.87,11.87,0,0,1-1.12,5,.66.66,0,0,1,0,.14,12.12,12.12,0,0,1-10.87,7.06h-3.95V487h3.95A21.49,21.49,0,0,0,1044.51,477.45Z"/><g id="original"><path class="cls-3" d="M720.3,393.58c-6.06-1.1-10.85.05-12.76,3.38-1.42,2.46-1,5.74,1,9.23a.62.62,0,0,0,1.08-.62c-1.81-3.15-2.16-6-1-8,1.58-2.75,5.86-3.8,11.46-2.76a.62.62,0,0,0,.22-1.22Zm-8.62,16.85a39,39,0,0,0,9.28,7.32c8.79,5.06,18.14,6.43,22.78,3.28a.62.62,0,1,0-.71-1c-4.15,2.82-13.06,1.52-21.46-3.34a37.53,37.53,0,0,1-9-7.08.63.63,0,1,0-.92.85h0Z"/><path class="cls-3" d="M742.23,409.67c4-4.68,5.35-9.4,3.45-12.7-1.41-2.43-4.37-3.71-8.31-3.76a.62.62,0,0,0-.62.62.62.62,0,0,0,.62.62c3.54.05,6.1,1.16,7.25,3.15,1.58,2.74.34,6.94-3.32,11.28a.62.62,0,0,0,.07.87.63.63,0,0,0,.88-.07ZM732,393.79A38.89,38.89,0,0,0,721,398.17c-9.07,5.26-15,13-14.19,18.57a.64.64,0,0,0,.73.54.63.63,0,0,0,.54-.72h0c-.75-5,4.86-12.29,13.54-17.31A37.66,37.66,0,0,1,732.3,395a.62.62,0,0,0,.47-.74.61.61,0,0,0-.74-.47h0Z"/><path class="cls-3" d="M717.32,420.63c2.11,5.79,5.48,9.37,9.3,9.37,2.78,0,5.36-1.9,7.36-5.24a.62.62,0,0,0-.19-.86.63.63,0,0,0-.87.19c-1.8,3-4,4.64-6.3,4.64-3.17,0-6.19-3.18-8.11-8.53a.62.62,0,1,0-1.17.42h0Zm19-1.14A39,39,0,0,0,738,408c0-10.3-3.6-19.17-8.74-21.45a.62.62,0,1,0-.5,1.14h0c4.57,2,8,10.45,8,20.31a37.85,37.85,0,0,1-1.59,11.14.62.62,0,1,0,1.18.37Z"/><path class="cls-3" d="M748,418.88a3,3,0,1,0-3,3,3,3,0,0,0,3-3Zm-1.25,0a1.73,1.73,0,1,1-1.73-1.72h0A1.72,1.72,0,0,1,746.74,418.88Z"/><path class="cls-3" d="M708.18,421.86a3,3,0,1,0-3-3,3,3,0,0,0,3,3Zm0-1.25a1.73,1.73,0,1,1,1.73-1.73h0A1.72,1.72,0,0,1,708.18,420.61Z"/><path class="cls-3" d="M726.62,389.56a3,3,0,1,0-3-3,3,3,0,0,0,3,3Zm0-1.24a1.73,1.73,0,1,1,1.73-1.73h0A1.74,1.74,0,0,1,726.62,388.32Z"/><path class="cls-3" d="M723,410.08c-.71.26-1.4-.47-1.56-1.63s.28-2.31,1-2.57,1.4.47,1.55,1.63h0C724.14,408.68,723.7,409.82,723,410.08Z"/></g><path class="cls-3" d="M627.25,547.65a11.39,11.39,0,0,0-8.67-.82,11.8,11.8,0,0,0-4.69-7.56l-.94-.77-.82.94c-1.58,1.82-2,4.87-1.81,7.21a9.74,9.74,0,0,0,1.75,4.86,17.71,17.71,0,0,1-2.52,1.41,15.9,15.9,0,0,1-5.21,1.17h-3.93v-8.26h-7.62V531.18H584v7H569.35v7.62h-7.62V554h-6.56l-.12.88a21.53,21.53,0,0,0,1.76,10.85l.64,1.29.06.11c4.63,7.86,12.72,11.14,21.57,11.14,17.11,0,31.24-7.68,37.68-23.8,4.34.24,8.79-1,10.9-5.21l.53-1.06-.94-.58ZM570.52,540h5.86v6.45h-5.86Zm7.68,25.9a1.82,1.82,0,1,1-1.82-1.81A1.86,1.86,0,0,1,578.2,565.87Zm-7.68-18.28h5.86V554h-5.86Zm-7.62,0h6.45V554H562.9ZM579.14,577c-9.26-.06-14.25-3.17-18.35-7.27,1.23.06,2.41.12,3.46.12s1.88,0,2.75-.06a27,27,0,0,0,5.92-.88,15.92,15.92,0,0,0,8.21,8.09ZM584,554h-6.45v-6.44H584Zm0-7.61h-6.45V540H584Zm7.62,7.61h-6.45v-6.44h6.45Zm0-7.61h-6.45V540h6.45Zm0-7.62h-6.45v-6.45h6.45ZM599.24,554h-6.45v-6.44h6.45ZM576.85,564.7a1.08,1.08,0,0,0-.47-.12,1.29,1.29,0,0,0,0,2.58,1.29,1.29,0,0,0,1.29-1.29,1.12,1.12,0,0,0-.12-.47.51.51,0,0,1-.46.3.53.53,0,0,1-.53-.53A.73.73,0,0,1,576.85,564.7Z"/><g id="original-2" data-name="original"><path class="cls-3" d="M419.13,319.08a4,4,0,0,1-5-1.88c-2.85-4.26-6-8.33-9-12.48-.39-.53-.8-1.06-1.31-1.73-3.59,4.84-7.17,9.46-10.53,14.25-1.21,1.72-2.47,2.46-4.71,1.86L402.08,301l-12.56-16.36c2.16-.42,3.65-.2,5,1.73,2.93,4.27,6.15,8.34,9.36,12.64,3.24-4.29,6.42-8.36,9.43-12.59,1.2-1.71,2.5-2.37,4.67-1.73-1.64,2.18-3.25,4.32-4.87,6.45-2.18,2.87-4.33,5.78-6.6,8.59a1.78,1.78,0,0,0,0,2.61C410.72,307.83,414.86,313.4,419.13,319.08Z"/><path class="cls-3" d="M356.3,300.69c.36-1.81.6-3.66,1.1-5.43,3-10.74,15.34-15.21,23.81-8.55,5,3.9,6.2,9.41,6,15.61h-28c-.42,11.13,7.6,17.86,17.81,14.43,3.59-1.21,5.7-4,6.75-7.52.54-1.76,1.43-2,3.08-1.54-.85,4.39-2.77,8.06-6.78,10.36-6,3.44-14.6,2.33-19.11-2.45-2.67-2.81-3.8-6.3-4.3-10.08-.08-.6-.24-1.19-.36-1.79C356.29,302.72,356.3,301.7,356.3,300.69Zm2.94-.75h25.28c-.17-8.05-5.18-13.77-12-13.82C365,286.06,359.57,291.64,359.24,299.94Z"/></g><path class="cls-3" d="M1162.43,366.86c.56,5.92,1.12,11.81,1.69,17.82a34.64,34.64,0,0,1,2.62-4.39,12.81,12.81,0,0,1,3.44-3,3.13,3.13,0,0,1,4.46,1.68c.15.46-.21,1.09-.33,1.64-.41-.22-1-.34-1.22-.68-1.15-1.42-1.84-1.59-3.11-.36a14.55,14.55,0,0,0-4.22,8.4,5.78,5.78,0,0,0,.46,2,7,7,0,0,0,1.93-.7,9.19,9.19,0,0,0,3.34-5.05c.12-.45.81-.73,1.24-1.09.2.42.67.91.57,1.25-.9,3.1-1.88,6.19-2.91,9.25-.1.31-.67.47-1,.69-.14-.4-.44-.83-.39-1.22a23.06,23.06,0,0,1,.58-2.51l-4.64,2.13c.26,3,.53,6.29.85,9.61.24,2.54.66,3.2,3.15,3.68a75.39,75.39,0,0,0,8.85,1.13,38.38,38.38,0,0,0,13-1.22,3,3,0,0,0,2.33-3c.11-1.43.34-2.86.5-4.29.32-2.81.62-5.63,1-8.56a14.81,14.81,0,0,1-2.9,1.75,6.49,6.49,0,0,1-2.44-.19,7.65,7.65,0,0,1,.52-2.24,26.08,26.08,0,0,1,2.15-2.89l-.31-.38a5.7,5.7,0,0,0-1.55,1,14,14,0,0,0-2,2.9c-.85,1.75-1.49,3.6-2.25,5.4-.33.78-.62,2-1.72,1.52s-.35-1.53-.08-2.27c.44-1.19,1-2.32,1.42-3.18-1.12.13-2.25.29-3.39.39-.48,0-1.06-.22-1.45-.05-1.31.6-2.14.36-2.42-1.09a6.47,6.47,0,0,1-1.72,1.07,3.27,3.27,0,0,1-2.28-.08,2.39,2.39,0,0,1-.44-2,23.49,23.49,0,0,1,1.36-3.76c.32-.76.65-2,1.74-1.44s.09,1.4-.15,2.11l-1.17,3.27.62.37a8.62,8.62,0,0,0,1.73-1.55c.67-1,1.07-2.21,1.71-3.26.26-.43.83-.68,1.26-1A6.09,6.09,0,0,1,1181,386a8.94,8.94,0,0,1-.63,1.56c-.27.8-.49,1.62-.77,2.55a2,2,0,0,0,2.24-1.47c1.17-3.08,2.36-6.15,3.64-9.17.22-.52,1-.82,1.48-1.21,0,.62.33,1.33.13,1.86-1,2.78-2.24,5.52-3.35,8.29a10.33,10.33,0,0,0-.37,1.48c2-.88,3.6-1.86,4.2-3.94.15-.51.75-.89,1.14-1.32l.91,1a7.68,7.68,0,0,1,.82-.69c.95-.61,2-1.14,3-.2s.25,1.92-.29,2.76-1.3,1.75-2,2.62c1.48-1,3.5-1.38,3.77-3.45.66-5,1.24-10.1,1.82-15.15.18-1.49.27-3,.41-4.56A71.2,71.2,0,0,1,1162.43,366.86Zm5,39.35a22.55,22.55,0,0,1,1.64,4.5c.47,3.3.59,6.65.93,10a2,2,0,0,0,.75,1.37c5.76,3.13,11.58,3.67,17.45.25a2.4,2.4,0,0,0,1.15-2.14c.55-4.6-.67-9.49,2.27-13.82A46.35,46.35,0,0,1,1167.44,406.21Zm19.88-38.53c2.79-.27,5.56-.92,8.32-1.46a6.3,6.3,0,0,0,1.48-.76,3.22,3.22,0,0,0-1.79-.91c-2.91-.35-5.82-.61-8.72-1-.44-.06-1.23-.6-1.19-.7.84-2.55.8-5.44,2.72-7.59,2.43-2.72,4.89-5.41,7.33-8.11-1.82-1.95-1.84-1.95-3.48-.24-.93,1-1.78,2-2.79,2.89-3.73,3.23-6.34,7.06-6.85,12.1-.12,1.16-.76,1.58-2,1.6-4,.05-8,.16-12,.43a59.84,59.84,0,0,0-5.92,1v.74a34.94,34.94,0,0,0,3.7,1.12A73.89,73.89,0,0,0,1187.32,367.68ZM1211.74,431c-1.58,1.28-2.9,1.28-4.16,0Z"/><g id="plain"><path class="cls-3" d="M1254.57,558v.1h.19a.76.76,0,0,1,.06-.27v-.17c-.08,0-.16.13-.24.36Zm-1.85-4.45v-.17h-.28v.17Zm-5.37,10.06a9,9,0,0,0-1.48-1.88c0-.2.31-.5,1-.9l1.92-1.67a4.83,4.83,0,0,0,.81-2.73v-.29c-.08-.87-.7-1.56-1.89-2.1a7.58,7.58,0,0,0-3.77-.79,22.53,22.53,0,0,0-5.92,1.63,25.71,25.71,0,0,1-2.28,1.44v.14a.44.44,0,0,0,.22-.1.13.13,0,0,1,.16.1,0,0,0,0,1,0,0l.09-.06h.07v.06a8,8,0,0,1-1.59,1.26l.08.15h-.07l-.17-.06s-.07.09-.22.1V558l.17.22a.65.65,0,0,1-.24-.06,1.14,1.14,0,0,0-.73.4l.1-.44a37.22,37.22,0,0,0,.73-4.09l0-.12a3.13,3.13,0,0,1-.69-.62,1.6,1.6,0,0,0,0-.31v-.07h-.07q-1.15,1.76-4.47,6a27.62,27.62,0,0,0-2.6,3.32c-.69.71-1,1.14-1,1.26-.19.12-.26.23-.23.36a.07.07,0,0,1-.1,0h0a2,2,0,0,1-1.31.91l-.63.14a.14.14,0,0,0-.12.16h0v.08l.23,0v.06l-.52.2-.91.21h-.48c-.06.07.39,0,.21,0l-.63.14c-.36.08-.56.05-.63-.09h-.07a.2.2,0,0,1,0,.15l0-.15-.48.12c0-.18-.59-.95-1.84-2.33,0-.27.42-.66,1.33-1.17l2.57-2.26a6.6,6.6,0,0,0,1-3.55l0-.39c-.1-1.15-.93-2.07-2.51-2.79-.93-.63-2.59-1-5-1a30.07,30.07,0,0,0-7.79,2.11,29.23,29.23,0,0,1-3,1.89v.2a.91.91,0,0,0,.31-.12.16.16,0,0,1,.2.12.06.06,0,0,1,0,0l.2-.11h.13v.12a12.36,12.36,0,0,1-2.1,1.64l.11.17h-.09l-.21-.07c0,.05-.1.1-.3.12v.1l.23.26a.87.87,0,0,1-.32-.06,2,2,0,0,0-1.33,1l.11.17a2.85,2.85,0,0,1,.67-.53v.29a.79.79,0,0,0-.3.12l.24.36a8.09,8.09,0,0,1,1.53-1.26c.27.07.42.16.42.25h.22a16.25,16.25,0,0,1,4.49-2.42v.2c-.28.42-.47.63-.56.63a.73.73,0,0,0,.14.37,33.06,33.06,0,0,1-2,5.09,135.64,135.64,0,0,1-7.77,16.12.64.64,0,0,0,.13.29,2.67,2.67,0,0,0,1-.38h.12v.2h.19l.2-.11s.07.08.21.07v.2a1.86,1.86,0,0,1-.33.9,4.52,4.52,0,0,0-.65,1.45v.09h.19a12.07,12.07,0,0,0,1.93-2.77,30.18,30.18,0,0,0,5.66-2.13,5.27,5.27,0,0,0,3-1v-.11l-.49.15h-.11v-.11a4.39,4.39,0,0,0,2-.63q2.81-2.16,4.24-3.06a11.14,11.14,0,0,0,3.82-4.22l.33-.07h.47c0-.05,0-.08.07-.1.44,0,.22,0,.51,0l.73-.17h.13l-.06,0a.62.62,0,0,0,.27,0l0,.22-3.36,5.34-.78.86-.37,1.22h.07l.37-.15-.12.47,0,.14.1.12s-.06.05,0,.1v.07l.15,0c.23-.2.32-.37.29-.53a1.54,1.54,0,0,0,.48,0v.07c-.15,0-.22.15-.24.35v.08h.08c1.23-1.33,4.21-5.88,6.61-9-.08-.33,1.18-.8,3.77-1.39h.08a7.48,7.48,0,0,1-.62,2.93,8.24,8.24,0,0,0-.45,1.54,11.93,11.93,0,0,0-.58,2l-.86,3a27.23,27.23,0,0,0-1.36,4.82.53.53,0,0,1,.25,0l.13-.11a.08.08,0,0,0,.09.06h0l0-.22h.4c.12,0,.21-.17.3-.45s.07-.62.25-.66a6.32,6.32,0,0,1,.45-1.46,6.65,6.65,0,0,1,.51-1.64,4.84,4.84,0,0,1,.76-1.92l0,.15-.25.63a32.13,32.13,0,0,1-1.34,4.62l.14.56h.08a118.9,118.9,0,0,0,4.7-13.92,1.8,1.8,0,0,1,.86-1.36l-.12-.13v-.06a.76.76,0,0,0,.49-.28s-.21-.13-.62-.23l1-4.4a1.57,1.57,0,0,1,.39-.3v.22a.49.49,0,0,0-.22.1l.19.27a6.59,6.59,0,0,1,1.15-1c.21.06.31.13.32.2h.16a12.46,12.46,0,0,1,3.41-1.83v.15c-.2.31-.34.46-.42.47a.66.66,0,0,0,.09.28,26.87,26.87,0,0,1-1.51,3.88,105.32,105.32,0,0,1-5.94,12.29.65.65,0,0,0,.11.22,2.16,2.16,0,0,0,.74-.29h.07v.14h.16l.15-.07s0,.05.15.05v.15a1.28,1.28,0,0,1-.25.67,3.21,3.21,0,0,0-.53,1.14v.08h.15a9.35,9.35,0,0,0,1.46-2.11,22.79,22.79,0,0,0,4.28-1.61,4,4,0,0,0,2.27-.78v-.07l-.38.11h-.08v-.08a3.27,3.27,0,0,0,1.51-.48c1.41-1.09,2.51-1.89,3.22-2.33,2.26-1.64,3.31-3.22,3.19-4.75Zm-.39.1,0,.6c-.07.14-.15.22-.22.22l-.08-1C1246.87,563.58,1247,563.64,1247,563.71ZM1202.58,559h-.1v-.19l.4,0v.1a.74.74,0,0,0-.29.12Zm-2,19.75a1.23,1.23,0,0,0-.62-.14v-.29c0-.11,0-.18.19-.21s.21.08.21.27a4.84,4.84,0,0,1,.56-.63l.22.09c-.07.58-.25.89-.54.91Zm21.11-22.08c-.1,0-.31-.3-.59-.91v-.19c.19,0,.38.29.59.92Zm-.29-2.19-.08.2-2.87-1.2C1220.39,553.49,1221.37,553.83,1221.42,554.43Zm-12.09,10.4-.4,0v-.18l.4,0Zm-.33-6.24h.1v.29c-.09,0-.21.14-.37.41v-.2c.18-.21.28-.38.26-.5Zm-.85,2,0,.39h-.1l0-.39Zm-.44.72h.19c0,.32-.11.49-.26.5h-.1a.93.93,0,0,0,.17-.49Zm-.34,1h.12v.1l-.19.3h-.19v-.09a.26.26,0,0,0,.27-.23.19.19,0,0,0,0-.08Zm-.33.9,0,.48h-.1l-.05-.47h.2Zm-3.29,9.34c-.13.63-.27,1-.42,1v-.09a1.07,1.07,0,0,1,.43-.91Zm-.63,1.31v.1a.18.18,0,0,1-.12.21h-.06V574a.2.2,0,0,1,.18-.21Zm-.14,2.71h.3v.1a.79.79,0,0,0-.3.12h-.2c0-.1,0-.17.18-.21Zm8.67-2.68a16.31,16.31,0,0,0-3,1.71c-1.85.65-2.77,1-2.75,1.21a29.54,29.54,0,0,0-3.26,1.43,1.1,1.1,0,0,1-.53-.14.86.86,0,0,1,.45-.82,1.78,1.78,0,0,1,.82.14,8,8,0,0,1,1.59-.53v-.2l-.63.05a8.81,8.81,0,0,1,1.77-.8h.3V576c-.52.05-.81.2-.87.47s.08.18.21.17c.39-.25.59-.39.58-.44q1.11-.21,6.17-3.22v.18c0,.09-.28.33-.86.75Zm-5.17,1.7a2,2,0,0,0,1.26-.59c.14,0,.21,0,.22.16a4.93,4.93,0,0,0-1.38.63h-.1v-.19Zm8.35-6.4-2.58,2.05a26.57,26.57,0,0,1-3.11,1.89c-3.06,1.67-5,2.55-5.71,2.62h-.11q.14-.51,4.09-8.37a22.73,22.73,0,0,0,5.48-1.62l.63,0a3.49,3.49,0,0,1,2.82.72l0,.38c-.47,1.34-1,2.13-1.54,2.36Zm-5-2.84.41,0v.09l-.41,0Zm5.84-1h.3c.29.13.43.25.44.36v.09a.82.82,0,0,1-.74-.42Zm.83-4.71a11.86,11.86,0,0,1-2.27,1.65,31,31,0,0,0-4.44,1.73.79.79,0,0,0-.4,0v-.18a2.37,2.37,0,0,1,.5-1.4c.2-1.06.41-1.66.63-1.81l2.13-4.81c0-.3.44-.52,1.37-.68h.31v.27c.92-.13,1.49-.22,1.71-.24,1.7-.14,2.59.21,2.66,1h.19l0-.48h.21a1.33,1.33,0,0,1,.83.91,1.57,1.57,0,0,1-.43,1c-.13,0-.21-.08-.21-.27H1219l0,.58c-.86,1.29-1.49,2-1.89,2-.35.48-.57.73-.63.73Zm1.31,3.38a.74.74,0,0,0-.42-.17v-.29h.19l.43.25a.17.17,0,0,1-.12.21h-.08Zm1.36,1.61c.19.07.3.15.32.23h-.15l-.14.11,0-.39Zm.09.8v-.07l.25-.06v.07Zm.6.69a8.48,8.48,0,0,0,.84-.16V567l-.9.21a.24.24,0,0,0,0-.12Zm.86.37a3.83,3.83,0,0,0-.89.13v-.08l.75-.23.36-.09,0,.14c-.16,0,0,0-.23.13Zm.8-.18a.16.16,0,0,1-.2-.12h0l.23-.05a.14.14,0,0,1,.18.07.08.08,0,0,1,0,0Zm2.15-2.34v-.08l.37-.09,0,.14h-.39Zm2.29,14a1,1,0,0,0,0-.24h.08a.14.14,0,0,1,.17.07.08.08,0,0,1,0,0V579l-.3.07Zm1.6-13.45h-.16a5.25,5.25,0,0,1-.67.22l-.15,0a.15.15,0,0,1-.19-.1h0l1.06-.27.35-.16.12.13a.77.77,0,0,0-.36.15Zm.82-.26v-.08a.57.57,0,0,0,.21-.13l.74-.17V565a6.32,6.32,0,0,0-1,.31Zm.12-1.55a.6.6,0,0,0-.21.14s-.12,0-.31,0c0-.15.52-.36,1.69-.63l.16,0,0,.14c-.82.24-1.26.38-1.37.39Zm2-2.21c-.08.93-.41,1.46-1,1.59v-.07l-.52.2-.23.05a.55.55,0,0,1-.31,0l0-.21a32.3,32.3,0,0,1,2.23-3.09h.18a3.27,3.27,0,0,1-.3,1.51Zm3.63-3.11h-.07v-.14h.3v.07l-.23.1Zm-1.49,15a1,1,0,0,0-.48-.11v-.22c0-.07,0-.12.14-.15s.16,0,.17.21a2.41,2.41,0,0,1,.42-.48l.16.08c-.06.45-.19.68-.4.7Zm16-16.76c-.08,0-.22-.22-.46-.7v-.14c.15,0,.3.21.46.68Zm-.22-1.67-.07.15-2.17-.9C1247.67,554.31,1248.42,554.57,1248.46,555Zm-9.19,7.89h-.3v-.15h.3Zm-.25-4.74h.08v.22c-.07,0-.17.1-.28.31v-.14a.68.68,0,0,0,.19-.39Zm-.63,1.52V560h-.08v-.29Zm-.34.55h.15c0,.24-.07.37-.2.38h-.09a.79.79,0,0,0,.13-.38Zm-.25.74h.07v.08l-.13.23h-.15v-.07a.2.2,0,0,0,.21-.24Zm-.24.68,0,.38h-.07v-.37h.12Zm-2.52,7.11c-.1.49-.21.74-.31.76v-.07a.79.79,0,0,1,.32-.69Zm-.46,1v.07a.13.13,0,0,1-.09.16h0v-.08A.18.18,0,0,1,1234.58,569.76Zm-.13,2.07h.23v.07a.92.92,0,0,0-.23.09h-.15a.16.16,0,0,1,.14-.16Zm6.58-2a13.29,13.29,0,0,0-2.3,1.29c-1.41.49-2.1.8-2.09.92a22.37,22.37,0,0,0-2.46,1.08.83.83,0,0,1-.4-.11.63.63,0,0,1,.34-.63,1.34,1.34,0,0,1,.63.09,8.53,8.53,0,0,1,1.21-.39v-.14l-.47,0a6.64,6.64,0,0,1,1.35-.63h.23v.07c-.4,0-.63.15-.67.36a.14.14,0,0,0,.13.14h0c.29-.19.43-.3.43-.34a23.59,23.59,0,0,0,4.68-2.45v.15s-.21.24-.63.56Zm-3.93,1.25a1.5,1.5,0,0,0,1-.41c.1,0,.16,0,.17.14a3.72,3.72,0,0,0-1,.44h-.08v-.13Zm6.34-4.86-2,1.57a17.82,17.82,0,0,1-2.37,1.44,18.86,18.86,0,0,1-4.33,2h-.08q.11-.39,3.11-6.35a16.93,16.93,0,0,0,4.16-1.26l.47,0a2.63,2.63,0,0,1,2.14.56v.29c-.36,1-.74,1.59-1.17,1.78Zm-3.83-2.13h.3v.08h-.3Zm4.44-.75h.23c.21.1.33.2.33.27v.06a.63.63,0,0,1-.57-.32Zm.63-3.57A9.45,9.45,0,0,1,1243,561a22.67,22.67,0,0,0-3.38,1.3.75.75,0,0,0-.3,0v-.14a1.87,1.87,0,0,1,.37-1.07c.15-.81.32-1.25.49-1.36l1.64-3.66c0-.21.33-.39,1-.52h.23v.22c.7-.12,1.13-.18,1.31-.2,1.25-.11,2,.15,2,.78h.16V556h.15a1,1,0,0,1,.63.74,1.23,1.23,0,0,1-.31.77c-.1,0-.16-.06-.17-.22h-.15l0,.44c-.63,1-1.12,1.51-1.42,1.53-.26.36-.43.54-.5.54Zm.68,2.44V562h.15l.33.2a.14.14,0,0,1-.12.16h0a.61.61,0,0,0-.32-.13Zm-27.29,14.23-.15,0-.13.12a.12.12,0,0,0,.14.11h0c.1,0,.14-.08.12-.17v-.08Zm-.58-1.16v.07c.1,0,.14-.08.12-.17v-.08a.14.14,0,0,0-.12.15Zm4.15-7.79.12-.07h-.06a.06.06,0,0,0,0,.08Zm0-2,.18-.05-.07-.15-.18,0,0,.15Zm41.42,5.92-.4-.05-.07.15v.07l2.38-.21v-.14l-1.89.16Zm2.17-.19v.15h0Zm10-1.3V570l.25,0v-.14Zm-.37,0a9.52,9.52,0,0,1-2.38.36v.14h.26l.19-.07c1.76-.2,2-.13,1.95-.32v-.07Zm-10.69-2.59-.16,0a2.7,2.7,0,0,0-.19.63v.06c.13,0,.24-.21.34-.63Zm-2.15-1.16v-.07h-.08l-.14.09.08.14c.11,0,.16-.06.15-.16Zm4.66,4.82v-.14h0v.14Zm9.67-2.18h.11c.07,0,.1-.06.09-.15l-.06-.14a2,2,0,0,0-.92.23v-.07l-.48,0c0-.14,0-.22-.12-.21h-.25c-.3,0-.44,0-.58.12,0-.05,0-.07,0-.07h-.29l-.16.09c0-.05,0-.07,0-.07l-.1.08v-.07H1273v.14l.2.05h.19a.31.31,0,0,0,.21,0l.16-.08v.06a11.6,11.6,0,0,1-1.54.29.31.31,0,0,0-.16-.06h0a.12.12,0,0,1-.12-.13h0l.33-.05a.79.79,0,0,0,.22.06c.26-.13.27-.18.41-.19v-.15a9.35,9.35,0,0,1-1.67.16h0v-.15c1.45-.17,1-.07,1.46-.21,0,0,0,.08.05.08a.3.3,0,0,1,.21-.1h.1a5.46,5.46,0,0,0,1.61-.18v.06l.17-.08h.15c0-.14.21-.17.29-.18v-.15c-1.77.36-2.24.25-2.73.39v-.06a2.21,2.21,0,0,1-.63,0,.42.42,0,0,0-.14.09s0-.07-.06-.07h0l-1.5.24s0-.06-.06,0a7.88,7.88,0,0,1-1.61.29.46.46,0,0,0-.19.08s0-.06-.08-.06l-.63.05-.43.11s0-.06-.08-.06a3.5,3.5,0,0,1-.63.12h0c-.11,0,0,0,0-.06l-.13.08h-.73c-1.14.13-1,.15-1.14.16H1264a.06.06,0,0,1,0,.07h0c-.48-.06-.73-.14-.73-.23.06-.46.17-.69.33-.7h.09l-.07.15h.08c.15-.08.22-.16.21-.23V568h-.15v-.14a.53.53,0,0,1,0-.3l.34-.56v.15h.16V567l-.09-.13a.64.64,0,0,1,.3-.17v-.07h-.22v-.22a6.24,6.24,0,0,0,.62-1.62l.16.06c.1,0,.15-.06.14-.17H1265v-.06a.56.56,0,0,1,.06-.31,1,1,0,0,0,.32-.76s.07,0,.08.06c.21-.12.36-.42.48-.94a28.9,28.9,0,0,0,1.55-3.93,20.74,20.74,0,0,0,1.42-4.66h-.16a.45.45,0,0,1,0,.3,1,1,0,0,0-.25-.06v-.06a1.73,1.73,0,0,1,.39-1.07h.07l.13.5h.15a3.5,3.5,0,0,1,.12-.63c0-.08-.07-.13-.18-.13l-.15.09v-.81h-.07a.59.59,0,0,1-.21-.33l-.83.09a.82.82,0,0,0-.1-.26c0-.08.19-.15.57-.23l.17.06.16-.09c0,.05,0,.08.09.07l.16-.09c0,.05,0,.07.09.06h.08v-.17h-.92l-.16.11v-.09l-6.7.56h-.83c0,.06,0,.1-.17.11l-.17-.08-.66.12a3.86,3.86,0,0,1-.68,0,.63.63,0,0,1-.32.12l1.66-.12a.73.73,0,0,1-.4.13.5.5,0,0,1-.34-.06,8.89,8.89,0,0,1-1.26.3l-.17-.06-2.74.42a.59.59,0,0,0-.37-.06,4.52,4.52,0,0,0-.73.16l-1.33.55.1.17a1,1,0,0,0,.28-.11l.47,0-.06.44a1.17,1.17,0,0,0-.75.85c-.63.28-1,.49-1,.62v.08h.1l.18-.09.2.24V556c0,.11-1.09,2.41-3.27,6.92-1.89,4.34-2.9,6.71-3,7.14-.63.18-1,.44-1.14.8,0,.11.21.18.58.21v.17l-.17.28v.34c0,.18.47.31,1.42.41,0-.06,0-.1.09-.11a5.32,5.32,0,0,1-.18,1.26h.22a2.22,2.22,0,0,0,.55-1.09h.08c.09,0,.19.1.31.33a14,14,0,0,0-1.26,2.8l.1.16h.1a20.75,20.75,0,0,1,1.62-3.61q1.69-.15,5.87-.63l.18-.11a.08.08,0,0,0,.07.09h.21l.18-.1a.08.08,0,0,0,.08.08h0l2.1-.18c.56,0,.82-.22.8-.51,0-.07.32-.16,1-.26a.93.93,0,0,1,.29,0s.33-.1,1-.16c0-.35.13-.54.33-.56v-.17a2.88,2.88,0,0,0-.63.15,4.59,4.59,0,0,1-.83-.1,1,1,0,0,1-.27.1l-1.51,0-.17.09c0-.05,0-.07-.11-.07h-.08l-.19.1s-.16-.1-.47-.13l-.19.11h-.36v-.1c1.89-.2,2.82-.46,2.79-.76a.16.16,0,0,1,.2.12v0l.56-.14v-.17l-4.52.12c0,.06,0,.1-.09.11l-.55-.05a.63.63,0,0,0-.35.13l-.22,0a7.69,7.69,0,0,1-2.52.21l-1,.09-.47-.06a25.76,25.76,0,0,1,1.75-4.4,3.88,3.88,0,0,1,1-1.66.73.73,0,0,1,.29.07l.65-.24.37.05a8.61,8.61,0,0,0,2.17-.53,1.06,1.06,0,0,1,.47,0l.55-.13,1.65-.14a11,11,0,0,0,2.27-.46v-.17c-.3,0-.46,0-.47-.15s-.24-.32-.67-.29v-.17l.46-.13,1.18-.1v-.17h-.73v-.18l.46,0c.12,0,.17-.07.16-.19-.63,0-.92,0-.93-.09q-6.44.32-6.45.12a.66.66,0,0,0-.27.12l-.18-.2c1.13-2.41,1.8-3.63,2-3.64a1.18,1.18,0,0,1-.14.45v0h.18c.45-1.08.83-1.64,1.15-1.66,1.35-.12-.19-.21,2.7-.63a.59.59,0,0,0,.26.07c1.13-.23,2.71-.47,4.73-.72V554l-1.08.1v-.17a.6.6,0,0,0,.32-.12v.09a.64.64,0,0,0,.25-.12.86.86,0,0,1,.42,0,7,7,0,0,1,.91-.18l.67-.06c.17-.11.24-.2.24-.29v-.08a2,2,0,0,1-.6,0,.17.17,0,0,1,.15-.18h0l1.25-.12.58-.15c0,.06,0,.09.08.09a.55.55,0,0,0,.24-.12h.1a4,4,0,0,0-.25.69h-.17a.85.85,0,0,0-.09-.31H1267c-1.52,4.25-2.2,6.22-3.61,9.48-.25.83-.47,1.3-.66,1.4a.13.13,0,0,0,.13.13h0a2,2,0,0,1-.29,1.21,10.91,10.91,0,0,1-1.31,3.09l.14.89a.13.13,0,0,1-.11.16h-.17c0-.25-.12-.37-.28-.35h-.08a3.53,3.53,0,0,0-.45,1.08h.15a.5.5,0,0,0,.28-.47h.31l.17.06a1,1,0,0,0-.19.54l.08.14-.2.47v.07a1,1,0,0,1,.57.17,1,1,0,0,0,.45-.2h2l.56-.2a13,13,0,0,0,1.4,0h.25l.13-.09v.07a4.09,4.09,0,0,1,1.16.05v.07h-.35v.15a.49.49,0,0,0,.28-.11c.09,0,.14.05.14.15a1.88,1.88,0,0,0-.47.1l-.15,0c-.24.07-.19.09-.35.1l-.24-.05a.06.06,0,0,1,0,.07h0a.14.14,0,0,0,.12.14h.27l1.26-.12.49-.11c0,.05,0,.07.06.06l.23-.09.44,0a6.51,6.51,0,0,0,1.08-.17s0-.07,0-.07v.06a11.92,11.92,0,0,0,1.47-.28v0c.3-.06.14,0,.22-.11s0,.08,0,.08h.21v-.16h-.53a2.52,2.52,0,0,1-.48,0l-1.07.05v-.07l.63-.08h.21l.13-.09v.07a20.08,20.08,0,0,0,5-.69c.21,0,.19-.2.33-.56a.36.36,0,0,1-.21,0,6.09,6.09,0,0,1-1.11.17c-.05,0-.1,0-.12-.14v-.06h.63a1.57,1.57,0,0,0,.63-.21s-.13.08,0,.07Zm-28.85.46h-.28a5,5,0,0,1,.44-1.25h.18A4.93,4.93,0,0,1,1247.46,569.22Zm.33-1.33v-.08c0-.09,0-.15.18-.18v.12a.17.17,0,0,1-.18.19Zm3.66,2.83v.08l-.46,0v-.08Zm-.55,0c0,.09-.14.2-.44.3l-.56-.05h-.19v-.17l1.2-.11Zm3.7-17h-.28v-.1a.19.19,0,0,1,.17-.19h.1l.19.08a.16.16,0,0,1-.14.18h0Zm4.19-.82h.07V553h-.25a.16.16,0,0,1,.15-.19h0Zm-1.06.37-.41,0v-.07a4.23,4.23,0,0,0,1.06-.2c0,.06.06.09.17.07v.17h-.16a.57.57,0,0,1-.34-.05.82.82,0,0,1-.32.12Zm.5,1.55v-.08l.67-.06v.07Zm.72-.59V554h.33v.09H1259ZM1259,553h-.09l.08-.18.74-.07v.09a4.62,4.62,0,0,0-.74.15Zm.38,1.62v-.17h.33c.11,0,.17,0,.17.15l-.49,0Zm2-2.71-.42.12h-.08a4.07,4.07,0,0,1-.78,0c.54,0,1.07-.08,1.25-.11Zm-.45,1.89v.07l-.58,0v-.07Zm1,.45c0-.07-.12-.12-.35-.14l-.58.17h-.45q-.15-.1-.15-.15h.51l1.16-.19h.59V554a3.14,3.14,0,0,0-.74.15Zm6-1.58h.14a2.1,2.1,0,0,1,.7-.47,4.19,4.19,0,0,1-1,2l-.33-.2a9.63,9.63,0,0,0,.48-1.4Zm-1,1.73h.08c-.11.21-.21.32-.3.32v-.22a.44.44,0,0,0,.23-.1Zm-.63,1.55a2.25,2.25,0,0,1,.45-1.08v.07c-.08.59-.21.9-.38.92v.37a.79.79,0,0,0-.2.47H1266l0-.5c.1,0,.17-.1.22-.25Zm-.25.84a2.26,2.26,0,0,1-.17.63h-.08v-.22q.16-.39.27-.39Zm-4.73,13.73v-.07h.15v.22a.15.15,0,0,1-.16-.14Zm6.75.17s0-.07-.08-.07l-.38,0v-.07h0l.89-.08v.08a.72.72,0,0,0-.47.11Zm-.45-.19s0,0,0,0S1267.51,570.54,1267.55,570.49Zm0-1-.5,0v-.07l.46,0,.4-.1s0,.06.08.06c.47-.08.43-.11.63-.13a.13.13,0,0,1,.13.13l-1.21.11Zm1.77-.15a1.69,1.69,0,0,0-.5,0v-.06l.45-.05v.06s.13,0,0,.08Zm0-.09v-.06h.25v.06Zm.55,0v-.06a.4.4,0,0,0,.18-.1.19.19,0,0,1,.2.15v0Zm.7-.09V569h.3v.08h-.3Zm.41,0c0-.08,0-.13.11-.15l.1.14s0-.07,0-.07h0l.07.14-.33-.05Zm5.86-.72s.07-.06,0-.08.05.08-.06.08v.07l.06,0-.06,0h0l-.13.15.25-.08h0v-.15Zm.43.33h0v.14h.35c0-.09-.23-.12-.31-.12Z"/></g><path class="cls-3" d="M838.47,591.85H847l-4.52-9.46Zm4-23-21.67,7.63,3.42,28.39,18.27,10,18.37-10.18,3.42-28.39Zm-5.76,27-2.66,6.65-5,0,13.39-29.65,0-.06h0v-.05l0,.05h.06l0-.1v.1h0l0,.06,14,29.77-4.79-.1-2.94-6.8-6.28,0"/><path class="cls-3" d="M1562.14,362.12l20.22.06,5.8,9.91,5.8-9.91,20.1-.06-25.89,44.67Zm51.51.26h-9.89l-15.6,26.79-15.6-26.79h-10l25.63,43.76Z"/><path id="plain-2" data-name="plain" class="cls-3" d="M1164.24,236v22.87H1210V213.07h-45.76Zm36.88-1.83a5.67,5.67,0,0,1,2.86,1.64,7.94,7.94,0,0,1,1.1,1.47c0,.06-2,1.39-3.18,2.14-.05,0-.22-.16-.42-.45a2.6,2.6,0,0,0-2.15-1.29c-1.38-.1-2.28.63-2.27,1.83a1.69,1.69,0,0,0,.2.85c.3.64.87,1,2.65,1.78,3.27,1.41,4.68,2.34,5.55,3.66a6.66,6.66,0,0,1,.53,5.58c-.73,1.91-2.53,3.2-5.06,3.63a14.06,14.06,0,0,1-3.49,0,8.44,8.44,0,0,1-4.64-2.4,7.49,7.49,0,0,1-1.19-1.76,3,3,0,0,1,.42-.27l1.68-1,1.31-.76.28.41a6.08,6.08,0,0,0,1.73,1.66,4.25,4.25,0,0,0,4.46-.23,2,2,0,0,0,.25-2.53c-.37-.51-1.1-.94-3.15-1.83-2.36-1-3.38-1.65-4.3-2.65a5.92,5.92,0,0,1-1.26-2.29,9.28,9.28,0,0,1-.08-2.93,5.57,5.57,0,0,1,4.69-4.34,11.94,11.94,0,0,1,3.48.09ZM1190.38,236v1.88h-6v16.92h-4.21V237.9h-6v-1.83a16.8,16.8,0,0,1,0-1.88s3.66-.05,8,0h8Z"/><path class="cls-3" d="M403.32,576.24l-.15-.25-.1,0v-.2l-.05-.2-.1-.15-.2-.1h-.05l-.05-.1-.15-.1-.15-.1-.2,0H402l-.2-.2-.25-.15-.29-.15-.3-.1h-.1l-.25-.3-.3-.2-.3-.15-.3-.1h-.05l-.3-.19-.4-.15-.25,0-.25-.2-.25-.1-.25,0-.25-.05h-.25l-.29.05h-.05l-.2-.3-.3-.2-.4-.1h-.45l-.5.1-.2,0-.4-.15-.4-.1H393l-.5-.2-.45-.15-.45,0h-.3l-.4-.4-.45-.3-.4-.2-.4-.1h-.39l-.2.15-.25-.2-.3-.15-.35,0-.3,0-.35-.15-.35-.1h-.5l-.55-.2-.6-.15-.54-.05h-.1l-.6-.35-.6-.14h-.5l-.85-.2-.55-.05h-.25l-.34-.35-.4-.25-.45-.1-.45,0-.3.1-.4-.05h-.9v-.1l-.7-.15-.69-.1-.65-.05-.25.05v-.05l-.5,0-.5-.05h-.05l-.55-.25-.55-.15-.5,0H373l-.55-.2-.45-.1h-.5l-.55-.4-.45-.15-.35,0-.4-.2-.59-.1h-.55l-.55-.25-.5-.1h-.3l-.6-.3-.5-.15-.5-.05-.15.05h.05l-.69-.39-.55-.2-.5,0h0l-.35-.25-.3-.15-.3-.1-.35-.05-.35.05-.4-.3-.35-.15-.44,0h-.4l-.45.1-.1,0-.5-.25-.5-.15h-.45l-.4-.25-.35-.15h-.4l-.34,0-.35.1h-.05l-.35-.35-.3-.2-.35,0-.35,0-.3.15-.1-.05-.15-.1-.15,0-.15,0H354l-.15,0-.25.15-.05.05-.44-.1h-.4l-.35.1-.3.25-.2.25-.15.35-.15.4-.1.4-.05.4-.05.79.05.9V567c-.25-.1-.5-.2-.8-.3v-.2l.05-.3.05-.64.05-.6-.05-.6-.05-.3-.05-.25,0-.25-.1-.25-.1-.2-.15-.2-.15-.2-.3-.25.1.45.05.3.05.3.05.25.05.3,0,.25v0l0-.15-.05-.15-.1-.3-.15-.5-.05-.15-.1-.65v-.2l.05-.35.05-.15.1-.34h-.1l-.25.29-.15.35-.14.35,0,.3v.7l0,.35.05.35-.05,0-.15-.2-.15-.2-.1-.25-.1-.25-.1-.25-.05-.35-.05-.5-.35.3-.15.3-.1.3v.3l0,.3.1.3.15.3.05.1-.1.1-.3,0-.05.1.2.1.2.15.5.4.15.15.25.3.24.24.25.25.2.2.15.2.1.1c-2.84-1.14-5.83-2.49-9.52-4.24l-.2-.1.1.2c.5.85,1.94,1.7,3.19,2.5.6.35,1.15.7,1.55,1a40.45,40.45,0,0,0,4.18,1.9h-.09l-1,.2-.7.15-.7.25-.35.15-.35.1-.3.2-.25.2-.25.25-.19.25-.15.29-.1.35.1.05.1-.1.24-.25.1-.1.3-.19.15-.1.15-.1.3-.15.2-.05.15,0,.35-.1.35,0,.3-.1.65-.35.3-.2.3-.2.25-.15.19-.1.15,0,.3.1-1.19.6-.65.4-.35.25-.3.25-.3.24-.25.3-.15.25-.1.3-.05.3.05.35.2.45.25-.5.2-.3.2-.25.2-.2.2-.15.45-.3.2-.1,0,.2-.1.4v.45l.05.5.15.55h.1l.1-.55.15-.5.1-.25.2-.45.24-.45.4-.69.55-.9a2.82,2.82,0,0,0,.6.2l-.05.1-.35.7-.2.3-.15.34-.05.35-.1.35-.05.35v.35l.05.3.15.3.25.25.35.2.4.15.15.3.2.25.2.2.2.15.2.1.2,0h.5v.05l.2.29.29.25.35.15h.4l.4-.1.1.1.3.3.3.2.35.15.4,0h.3l.3.2.35.15.4.1.29.25.4.2.5.1.55,0h.1l.35.3.4.2.35.15.4,0,.45-.1.2.1.29.15.3.05h.3l.3-.05.15.1.5.15.55.05.65-.05.2.1.45.15.49.05.7-.05h0l.45.15.5.05.55-.05.2.15.5.19.5,0,.54,0v0l.3.1h.5l.55-.1.35.1h.4l.4,0,.55.1.15.1.5.15.49.1.55,0,.55,0V578l.3.1.45,0,.45.05v-.05l.3.1.6.2.64.15.7-.15v-.05h.1l.45.1.4.05h.45l.05,0,.4.3.4.2h.65l.39-.2.35-.3.45,0,.55,0h.6v0l.15.1.55.1.55,0,.55-.25h.49l.6,0,.5,0,.3,0h.7l.45,0,.25.1.3.05.3-.05.29-.15.05.05.4,0h1.25l.4-.15.55-.2h.8l.4,0,.24.1.4.1.4.05.4-.05.45-.1.1,0,.45.2.4.15h.4l.3-.15.25-.25.15,0,.24,0,.25.05h.25l.25-.05.25-.1.35,0,.4,0,.35-.15h.35l.3,0,.3-.15.25-.2,0,0,.3,0,.29,0,.25,0h.45l.2-.15.15-.1.05-.09h0l.15-.05.15-.1.1-.25.05-.3h.1l.15,0,0-.15.05.05v-.35ZM350,568.11l.1-.25.15,0-.1.1Zm.3-3.39.05.25.05.25,0,.25.15.79.1.35-.2-.1h.05l-.1,0-.25-.2v-1.19l.05-.4Z"/><path class="cls-3" d="M958.47,387.25l-24.12-24.12a3.55,3.55,0,0,0-5,0l-5,5,6.35,6.35a4.22,4.22,0,0,1,5.35,5.39l6.13,6.12a4.23,4.23,0,1,1-2.54,2.39l-5.71-5.71v15a4.51,4.51,0,0,1,1.12.8,4.24,4.24,0,1,1-6.12,0,4.32,4.32,0,0,1,1.25-.92V382.42a4.56,4.56,0,0,1-1.25-.93,4.2,4.2,0,0,1-.85-4.63l-6.23-6.26-16.52,16.54a3.56,3.56,0,0,0,0,5l24.13,24.13a3.57,3.57,0,0,0,5,0l24-24a3.57,3.57,0,0,0,0-5Z"/><g id="original-3" data-name="original"><circle class="cls-3" cx="1391.21" cy="283.97" r="12.66"/><path class="cls-3" d="M1417,262.49a4.34,4.34,0,0,0-7.2-3.28,31,31,0,1,0,6.13,6.13A4.33,4.33,0,0,0,1417,262.49Zm-25.83,51.44A30,30,0,1,1,1409.13,260a4.35,4.35,0,0,0,6.06,6.06,30,30,0,0,1-24,47.89Z"/></g><path class="cls-3" d="M1528,574.71c-.81-.67-1.64-1.32-2.39-2a3.56,3.56,0,0,1-1.26-3,1.26,1.26,0,0,0-.95-1.55,8.28,8.28,0,0,0,.46-1.24,6.83,6.83,0,0,0,.09-1.28c.12-4.49-1.5-8.43-3.9-12.1q-1.66-2.54-3.44-5a14.35,14.35,0,0,1-2.54-8.56,21.83,21.83,0,0,0-.49-4.27,7.93,7.93,0,0,0-4.7-6,9.46,9.46,0,0,0-6.27-.49,6.2,6.2,0,0,0-4.95,6.36c0,3.1.18,6.21.41,9.31a6.08,6.08,0,0,1-1.3,4.66,48,48,0,0,0-3.1,4.24,12.75,12.75,0,0,0-1.38,2.67,37.4,37.4,0,0,1-3.28,7.44,2.93,2.93,0,0,0-.23,2.8,1.08,1.08,0,0,1,0,.84c-1.06,1.77-2.26,3.32-4.54,3.65-1.79.27-1.88.6-1.82,2.44a35.81,35.81,0,0,1-.13,4.52c-.16,1.61,0,2,1.55,2.43a68.75,68.75,0,0,1,10.6,3.09,3.49,3.49,0,0,0,4.08-.8,6,6,0,0,1,4.44-1.74c2.84,0,5.67.14,8.51.17a1.47,1.47,0,0,1,1.51,1,2.46,2.46,0,0,0,2,1.59,5.69,5.69,0,0,0,5-1.52,19,19,0,0,1,6.14-4.16,6.72,6.72,0,0,0,1.85-1.19c1-.87,1-1.42-.06-2.25Zm-23.17-36.29a2.9,2.9,0,0,1,2.36-2.17,2.35,2.35,0,0,1,2.54,1.47,4.16,4.16,0,0,1,.33,3.9c-.48,1.12-.71,1.22-1.86.84l-.8-.29a8.87,8.87,0,0,1,.75-.62,1.43,1.43,0,0,0,.61-1.42,1.48,1.48,0,0,0-1.28-1.43c-.55,0-1,.52-1.08,1.31a12,12,0,0,0,.08,1.62A2.29,2.29,0,0,1,1504.82,538.42Zm-5.75-1a1.52,1.52,0,0,1,2.3-.46,3.54,3.54,0,0,1,1.24,3.42,4.23,4.23,0,0,1-.77,1l-.27-.17a8.35,8.35,0,0,0-.35-1.68c-.13-.33-.56-.54-.86-.8-.28.34-.76.65-.79,1a3.26,3.26,0,0,0,.43,1.5,4.2,4.2,0,0,0,.78.86l-.87.68A4.72,4.72,0,0,1,1499.07,537.4Zm17,29c-.09,1.18-.23,1.23-1.41,1.4-.83.12-1.06.34-1.1,1.34,0,1.16,0,2.33,0,3.49a2.55,2.55,0,0,1-.79,2,12.69,12.69,0,0,1-11,4,5.52,5.52,0,0,1-4.1-3l1.08-.41c1.41-.57,1.67-1.78.55-2.83-.85-.79-1.8-1.48-2.71-2.2l-2.65-2.09a2.82,2.82,0,0,1-1.06-2.34,15.13,15.13,0,0,1,1.41-6.65c.87-1.9,1.55-3.88,2.37-5.81a15.62,15.62,0,0,1,1.47-2.88,4,4,0,0,0,.9-2.68c0-.57,0-1.15,0-1.73l.32-.16c.52.44,1,.88,1.55,1.33,1.82,1.65,3.55,1.72,5.55.31.85-.61,1.77-1.12,2.67-1.65a6.5,6.5,0,0,1,.87-.33c1,2.28,1.93,4.52,2.88,6.76a33.19,33.19,0,0,0,1.47,3.4,13.73,13.73,0,0,1,1.84,6.89C1516.08,563.81,1516.15,565.09,1516.05,566.35Z"/><path class="cls-3" d="M412.65,436.91a14,14,0,0,0-3.79-.23h-6.63v8.65h7.09a12.93,12.93,0,0,0,2.33-.2,5.57,5.57,0,0,0,2-.75,3.81,3.81,0,0,0,1.31-1.46,4.54,4.54,0,0,0,.51-2.19,4,4,0,0,0-.74-2.42A3.74,3.74,0,0,0,412.65,436.91Zm-.91-4a3.67,3.67,0,0,0,2-1.31,3.78,3.78,0,0,0,.66-2.28,4.09,4.09,0,0,0-.62-2.27,2.81,2.81,0,0,0-1.76-1.15,17.43,17.43,0,0,0-3.95-.17h-5.81v7.52h6.24A12.12,12.12,0,0,0,411.74,433Zm19.83-13.72a6.25,6.25,0,0,0-6.26-6.25H390.8a6.25,6.25,0,0,0-6.25,6.25v34.52A6.25,6.25,0,0,0,390.8,460h34.51a6.25,6.25,0,0,0,6.26-6.25Zm-13.33,24.88a6.64,6.64,0,0,1-1.91,2.41,8.08,8.08,0,0,1-2.83,1.33,16.94,16.94,0,0,1-4.18.49H398.84V422.39h10.32a12,12,0,0,1,4.76.75,6,6,0,0,1,2.81,2.4,6.37,6.37,0,0,1,1,3.42,5.88,5.88,0,0,1-.9,3.12,6.43,6.43,0,0,1-2.72,2.37,6.76,6.76,0,0,1,3.61,2.35,6.3,6.3,0,0,1,1.26,3.92A7.62,7.62,0,0,1,418.24,444.11Z"/><path class="cls-3" d="M1029.17,198.73l.15-.09a3.26,3.26,0,0,0-1.15-1.25L1005,184.07a2.86,2.86,0,0,0-1.49-.33,3.41,3.41,0,0,0-1.48.33l-23,13.37a3.3,3.3,0,0,0-1.39,2.59v26.68a3,3,0,0,0,.43,1.63l-.09,0a2.73,2.73,0,0,0,.91.91L1002,242.66a2.82,2.82,0,0,0,1.48.34,3.28,3.28,0,0,0,1.49-.34l23-13.36a3.31,3.31,0,0,0,1.39-2.59V200A2.35,2.35,0,0,0,1029.17,198.73Zm-25.63,33.54A18.93,18.93,0,1,1,1020,204l-6.23,3.59a11.72,11.72,0,1,0,0,11.55l6.18,3.64A18.92,18.92,0,0,1,1003.54,232.27ZM1028,212.39h-1.54l-.43,1.91h2v2.4h-2.4l-.57,2.87h-2.35l.57-2.87h-1.82l-.57,2.87h-2.3l.57-2.87h-1.19v-2.4h1.67l.43-1.91h-2.1V210h2.53l.58-2.87h2.35l-.58,2.87h1.82l.58-2.87h2.3l-.58,2.87H1028Zm-6.09,1.91h1.82l.43-1.91h-1.82Z"/><path class="cls-3" d="M1426.32,666l.15-.1a3.38,3.38,0,0,0-1.2-1.3l-24-13.84a3,3,0,0,0-1.55-.35,3.54,3.54,0,0,0-1.54.35l-23.91,13.89a3.42,3.42,0,0,0-1.44,2.69v27.74a3.18,3.18,0,0,0,.44,1.7l-.09,0a2.64,2.64,0,0,0,.94.94l24,13.9a3,3,0,0,0,1.54.35,3.55,3.55,0,0,0,1.55-.35l23.91-13.9a3.42,3.42,0,0,0,1.44-2.69V667.27A2.4,2.4,0,0,0,1426.32,666Zm-17.68,16.18v-2h2.49v-2.49h2.49v2.49h2.49v2h-2.49v2.49h-2.49v-2.49Zm1.64-7a12.18,12.18,0,1,0,0,12l6.43,3.78a19.69,19.69,0,1,1,0-19.52Zm14.8,7h-2.49v2.49h-2v-2.49h-3v-2h3v-2.49h2v2.49h2.49Z"/><path class="cls-3" d="M1008.44,652.65l4.21,47.13,18.88,5.22,18.93-5.21,4.22-47.14Zm37.48,11.16-.26,3-.12,1.39H1023.4l.53,5.88H1045l-.14,1.46-1.36,15.19-.1,1L1031.56,695h0l-11.85-3.12-.81-8.92h5.81l.41,4.6,6.43,1.71h0V689l6.46-1.63.67-7.39h-20.06l-1.42-16-.14-1.63h29Z"/><path class="cls-3" d="M688.89,676.92l-20.2-11.72a4.39,4.39,0,0,0-4.22,0l-20.36,11.72a4.35,4.35,0,0,0-2.21,3.7V704a4.38,4.38,0,0,0,2.22,3.7l5.37,3.06c2.58,1.27,3.29,1.27,4.46,1.27,3.82,0,5.8-2.3,5.8-6.33v-23.1c0-.33.2-.82-.12-.82h-2.57c-.33,0-1,.49-1,.82v23.1c0,1.79-1.66,3.56-4.67,2l-5.55-3.21a.61.61,0,0,1-.31-.54v-23.4a.77.77,0,0,1,.41-.56l20.31-11.7a.74.74,0,0,1,.65,0l20.12,11.7c.19.12.16.33.16.56V704c0,.23,0,.44-.15.55l-20.2,11.71a.62.62,0,0,1-.59,0l-5.17-3.09a.5.5,0,0,0-.5,0,13.84,13.84,0,0,1-3.06,1.39c-.33.12-.82.32.19.88l6.77,4a4.28,4.28,0,0,0,4.27,0l20.12-11.71a4.16,4.16,0,0,0,2-3.7v-23.4A4.16,4.16,0,0,0,688.89,676.92Zm-16,23.39c-5.37,0-6.55-1.48-6.95-4.15,0-.28-.29-.63-.58-.63h-2.62c-.33,0-.59.4-.59.72,0,3.42,1.86,7.56,10.74,7.56,6.42,0,10.1-2.5,10.1-6.92s-3-5.53-9.19-6.35-6.93-1.26-6.93-2.73c0-1.22.54-2.84,5.2-2.84,4.17,0,5.7.89,6.33,3.7a.59.59,0,0,0,.57.46h2.64a.64.64,0,0,0,.43-.18.63.63,0,0,0,.15-.45c-.41-4.84-3.62-7.09-10.12-7.09-5.78,0-9.23,2.44-9.23,6.53,0,4.44,3.43,5.66,9,6.21,6.64.65,7.16,1.62,7.16,2.93C679,699.35,677.17,700.31,672.9,700.31Z"/><path class="cls-3" d="M1605.3,237.44l-1.4-1.36a22.06,22.06,0,0,0-4.82-4.58c-1.42-1-4.63-2.41-5.22-4.07l-.11-.11a22.64,22.64,0,0,0,3.13-.73c1.56-.42,2.86-.31,4.48-.73.73-.2,1.55-.41,2.08-.62v-.42a12.3,12.3,0,0,0-2.19-2.71,66.43,66.43,0,0,0-7.45-5.63c-1.46-.92-3.23-1.51-4.77-2.29-.52-.27-1.42-.4-1.76-.84a21.64,21.64,0,0,1-1.87-3.54c-1.31-2.52-2.59-5.28-3.75-7.93a43.19,43.19,0,0,0-2.3-5.21c-4.73-7.79-9.83-12.48-17.72-17.1a21.41,21.41,0,0,0-5.84-1.88l-3.44-.21a18.9,18.9,0,0,1-2.09-1.56c-2.61-1.65-9.32-5.25-11.26-.52-1.22,3,1.83,5.89,2.92,7.4a22.42,22.42,0,0,1,2.3,3.44c.36.78.42,1.57.73,2.4a54.05,54.05,0,0,0,2.39,6.15,23.25,23.25,0,0,0,1.67,2.82c.39.52,1,.75,1.15,1.56-.64.9-.68,2.3-1,3.44-1.63,5.14-1,11.53,1.35,15.33.73,1.17,2.44,3.67,4.8,2.71,2.06-.84,1.72-3.44,2.31-5.73.13-.52-.1-.91.44-1.26v.11c.53,1.25,1.12,2.5,1.75,3.75a24.65,24.65,0,0,0,5.77,6.15c1.08.82,2.1,2.24,3.16,2.72v-.06h.12c-.27-.53-.69-.62-1-1a24.94,24.94,0,0,1-2.4-2.73,64.08,64.08,0,0,1-5.11-8.34c-.73-1.41-1.36-3-2-4.39-.23-.55-.23-1.38-.73-1.67a21,21,0,0,0-2.19,3.13c-.83,2-.94,4.39-1.25,6.88-.18.07-.1,0-.21.11-1.45-.35-2-1.85-2.5-3.13A19.69,19.69,0,0,1,1551,203c.31-1,1.72-4,1.15-4.9-.27-.89-1.17-1.41-1.67-2.09a16.48,16.48,0,0,1-1.67-2.92c-1.11-2.53-1.64-5.37-2.81-7.92a24.2,24.2,0,0,0-2.3-3.55,21,21,0,0,1-2.5-3.54c-.24-.52-.56-1.35-.21-1.88a.83.83,0,0,1,.63-.63c.6-.46,2.29.16,2.92.42a26.48,26.48,0,0,1,4.48,2.27c.68.46,1.37,1,2.19,1.55h.94a15.9,15.9,0,0,1,4.48.54,27,27,0,0,1,6.57,3.14,40.66,40.66,0,0,1,14.29,15.64c.54,1,.77,2,1.25,3.13,1,2.22,2.17,4.51,3.13,6.68a30.93,30.93,0,0,0,3.23,6.15c.71.95,3.45,1.46,4.69,2a30,30,0,0,1,3.13,1.25c1.58,1,3.11,2.09,4.59,3.13.74.52,3,1.67,3.13,2.61a21,21,0,0,0-8.87,1.25c-.68.29-1.76.3-1.87,1.15.37.39.43,1,.72,1.46a11.8,11.8,0,0,0,2.4,2.81c.94.71,1.91,1.47,2.92,2.09,1.8,1.09,3.8,1.72,5.53,2.81,1,.65,2.11,1.46,3.11,2.19.49.36.47.92,1.54,1.15v-.1C1605.58,238.47,1605.61,237.88,1605.3,237.44ZM1554,184.36a7.62,7.62,0,0,0-1.88.21v.08h.1c.37.53,1,1.25,1.46,1.89l1,2.2.1-.1a2.56,2.56,0,0,0,.94-2.3c-.26-.27-.3-.61-.52-.93S1554.39,184.73,1554,184.36Z"/><path class="cls-3" d="M367.32,168c-22.32,0-40.41,9.17-40.41,20.48S345,209,367.32,209s40.41-9.17,40.41-20.48S389.64,168,367.32,168ZM356.8,192.51a8,8,0,0,1-3.21,1.66,16,16,0,0,1-4.51.3H345l-1.15,6.62H339l4.31-22.49h9.29c2.79,0,4.83.8,6.11,2.27s1.67,3.55,1.16,6.17a10,10,0,0,1-1.07,3A9.83,9.83,0,0,1,356.8,192.51Zm14.1,2,1.91-9.54a2.88,2.88,0,0,0-.24-2.35,3.37,3.37,0,0,0-2.41-.68h-3.83l-2.47,12.57h-4.79l4.31-21.83h4.79l-1.14,6h4.27c2.68,0,4.54.54,5.56,1.47s1.32,2.22.91,4.32l-2,10.08Zm26.63-7.39a9.68,9.68,0,0,1-3,5.43,8.06,8.06,0,0,1-3.22,1.66,16,16,0,0,1-4.5.3h-4.14l-1.14,6.62h-4.83L381,178.6h9.28c2.8,0,4.84.8,6.12,2.27S398,184.45,397.53,187.08Zm-9.1-5.18h-3.3l-1.81,9.27h2.94c1.95,0,3.4-.2,4.35-.93a5.59,5.59,0,0,0,1.93-3.59c.32-1.64.17-2.93-.44-3.61A4.92,4.92,0,0,0,388.43,181.9Zm-37.69,0h-3.31l-1.8,9.27h2.93c1.95,0,3.4-.2,4.35-.93a5.55,5.55,0,0,0,1.93-3.59c.32-1.64.18-2.93-.43-3.61A4.94,4.94,0,0,0,350.74,181.9Z"/><path class="cls-4" d="M596.41,199.44V240H637V199.44ZM617.86,234a4.76,4.76,0,0,1-3.07,2.4,7.41,7.41,0,0,1-5.43-.66,6.16,6.16,0,0,1-2.24-2.57l3.09-1.89a1.78,1.78,0,0,1,.22.35,3.22,3.22,0,0,0,1.4,1.45c.66.23,2.1.37,2.65-.78.34-.59.24-2.48.24-4.57,0-3.28,0-6.55,0-9.79h3.8c0,3.57,0,6.95,0,10.43C618.54,230.5,618.72,232.41,617.86,234Zm15.76-1.07c-1.32,4.52-8.69,4.66-11.63,1.68a6.85,6.85,0,0,1-1.38-1.88L623.7,231a4.32,4.32,0,0,0,3,2.25c1.87.23,3.74-.41,3.32-2.39-.43-1.62-3.82-2-6.12-3.74a5.32,5.32,0,0,1-1-7.57,5.44,5.44,0,0,1,2.88-1.7l1.2-.16c2.3,0,3.73.56,4.79,1.74a8.18,8.18,0,0,1,1,1.31l-3,1.91a2.79,2.79,0,0,0-1.65-1.53,2,2,0,0,0-2.57,1.1,2.18,2.18,0,0,0,.07,1.19c.42.94,1.8,1.35,3,1.92,3.58,1.46,4.78,3,5.08,4.86A5.63,5.63,0,0,1,633.62,232.93Z"/><path class="cls-3" d="M1536.24,655.4a5.59,5.59,0,0,0-1.23.14,5.89,5.89,0,0,0-3.43,2.4,5.94,5.94,0,0,0-.94,2.26l.2.35,1.35,2.25,1.19,2,1.1,1.83,1.7,2.84,1.17,1.95,1.69,2.82,2.08,3.47,1.8,3,.08.11a.36.36,0,0,0,.23,0l2.37-.57,3.84-.91,2-.49,3.88-.92,3.93-.94,2-.48,3.84-.92,4.19-1,.22-.06-.06-.13-1.14-1.61-1.13-1.6-1.21-1.7-1.15-1.64-1.14-1.61-1.18-1.67-1.16-1.63-.61-.86a1.75,1.75,0,0,1-.22-.43.7.7,0,0,1,.24-.81,1.4,1.4,0,0,1,.48-.26c.24-.07.49-.14.74-.19l1.52-.26,1.71-.27,1.08-.19,1.47-.25,1.43-.23,1.56-.26,1.08-.18,1.24-.2,1.54-.25a2,2,0,0,1,.91,0,2.06,2.06,0,0,1,.63.31l.27.18c0-.06,0-.09,0-.13a6.22,6.22,0,0,0-3.67-3.15,6.42,6.42,0,0,0-1.39-.11m-20.73,46.37s0-.16-.07-.21c-.55-.94-1.11-2-1.66-2.91-.69-1.2-1.38-2.4-2.06-3.61s-1.45-2.58-2.17-3.87-1.37-2.45-2-3.68c-.42-.74-.83-1.49-1.24-2.23l-.11-.17-.2,0-1.19.31-1.65.44-3.72,1-3.83,1c-.08,0,.08,0-.29,0v7.83c.15.24.14.13.15.21,0,.23.07.46.11.69a6,6,0,0,0,1,2.35,6.14,6.14,0,0,0,2.89,2.26,5.8,5.8,0,0,0,1.32.33l.46.12"/><path class="cls-3" d="M1531.81,684.24l4.37-1,1.93-.45c.32-.08.64-.15,1-.24s.32-.17.18-.42l-.64-1.11-1.87-3.22-1.88-3.23c-.63-1.1-1.27-2.19-1.91-3.29l-1.63-2.81c-.24-.4-.52-.81-.76-1.21,0-.08.16-.16-.21-.2v17.54l.22,0Zm44.88,12.54-1.71.61-3.91,1.4-2.16.78-4.43,1.58c-.85.3-1.71.68-2.56,1-.23.09-.46.34-.7.34H1571l.21-.12a4.58,4.58,0,0,0,.74-.13,6.07,6.07,0,0,0,2.71-1.25,6.23,6.23,0,0,0,1.5-1.77,6.43,6.43,0,0,0,.76-2.26.25.25,0,0,0,0-.22A.65.65,0,0,0,1576.69,696.78Zm-.84-13.17-1.3-1.77-1.78-2.45c-.24-.34-.49-.66-.72-1a.23.23,0,0,0-.27-.1l-.06,0-3.29.8-2,.47-3.84.94-3.8.92-3.94.95-3.88,1-3.76.91-2,.48a.77.77,0,0,0-.31.11l.09.17,1.66,2.87,1.89,3.25c.7,1.19,1.39,2.38,2.09,3.56.4.69.79,1.37,1.2,2s.89,1.51,1.35,2.27a6.87,6.87,0,0,0,.45.65,1.27,1.27,0,0,0,.38.35.66.66,0,0,0,.51.09c.09,0,.18-.06.27-.09l.33-.12,3.6-1.23,2.8-.95,2.79-.94,2.77-.93,2.83-1,3.47-1.18,3.35-1.13a.31.31,0,0,0,.2-.11v-7.11a.48.48,0,0,0-.11-.32l-1-1.42Zm-.19-21.82a.89.89,0,0,0-1-.32l-.54.11-1.77.32-2.59.47-2,.36-2.75.48a2.09,2.09,0,0,0-.34.08c-.16.05-.21.15-.13.3a2.12,2.12,0,0,0,.21.36l1.71,2.34c.79,1.08,1.57,2.16,2.36,3.23l2,2.73,1.57,2.15.1.12,4.55-1.12v-9.69a.58.58,0,0,0-.12-.36l-1.14-1.45Zm1.22,15.27c-.69.17-1.38.32-2.08.51.07.13,2,2.74,2.12,2.86l.07,0v-3.16c0-.08,0-.17,0-.24Z"/><path class="cls-3" d="M1225.15,775a27.76,27.76,0,0,0,.62-55.5c-15.43-.28-28.33,12.25-28.33,27.43A27.72,27.72,0,0,0,1225.15,775Zm-.05-54.16c14.66,0,26.34,11.9,26.33,26.85,0,14.11-12,25.91-26.32,25.92a26.39,26.39,0,0,1,0-52.77ZM1214,734.77c.24.8-.43,1.07-1.14,1.13l-2.38.18,8.61,25.64a3.94,3.94,0,0,0,.33-.54c1.59-4.76,3.19-9.51,4.74-14.29a2.33,2.33,0,0,0-.08-1.45c-.82-2.37-1.8-4.69-2.52-7.09-.5-1.64-1.15-2.7-3.09-2.51-.33,0-.73-.68-1.1-1.05.44-.27.89-.76,1.34-.77q5.93-.09,11.86,0c.45,0,.89.51,1.34.78-.39.36-.73.9-1.19,1a12.84,12.84,0,0,1-2.43.26l8.62,25.63c1.31-4.33,2.52-8.31,3.7-12.31a12,12,0,0,0-1.48-10,14.39,14.39,0,0,1-1.6-2.89,8.33,8.33,0,0,1-.48-3.67c.33-2,1.86-3,3.93-3.17-11.31-10.5-29.09-6.74-35.63,4.66,2.52-.11,4.92-.27,7.33-.3a1.66,1.66,0,0,1,1.32.74Zm4.51,34.73a3,3,0,0,0-.1.58,24.12,24.12,0,0,0,14.55-.4l-7.48-20.47Zm-3.77-.93-11.26-30.89C1198.44,747.6,1202.3,762.74,1214.78,768.57Zm34-19.85c.36-4.69-1.26-11.19-2.66-12.08a29.25,29.25,0,0,1-.54,5.4c-1.17,4.12-2.59,8.17-4,12.23-1.5,4.42-3.05,8.81-4.57,13.21A22.75,22.75,0,0,0,1248.82,748.72Z"/></g></g></g></svg>