<svg xmlns="http://www.w3.org/2000/svg" xmlns:xlink="http://www.w3.org/1999/xlink" viewBox="0 0 288.7 162.63"><defs><style>.cls-1{isolation:isolate;}.cls-2{fill:#2d1269;opacity:0.28;}.cls-2,.cls-47{mix-blend-mode:multiply;}.cls-3{fill:#d8e3ff;}.cls-4{fill:#def5ff;}.cls-5{fill:#e9ffff;}.cls-6{fill:#c9ccec;}.cls-7{fill:#00074a;}.cls-8{fill:#004695;}.cls-9{fill:#a3b4d2;}.cls-10{fill:#b1c6de;}.cls-11{fill:#fff;}.cls-12{fill:#c6cfe6;}.cls-13{fill:#e6f3ff;}.cls-14{fill:#e9f2ff;}.cls-15{fill:#e5f4ff;}.cls-16{fill:#c2c6de;}.cls-17{fill:#00b3ff;}.cls-18{fill:#37f0ff;}.cls-19{fill:#00dbff;}.cls-20{fill:#008bef;}.cls-21{fill:#ffe400;}.cls-22{fill:#fffb5f;}.cls-23{fill:#ff3d5b;}.cls-24{fill:#ff6d9a;}.cls-25{fill:#00e4a0;}.cls-26{fill:#4cfbd0;}.cls-27{fill:#00fbd0;}.cls-28{fill:#0060ff;}.cls-29{fill:#ff61e3;}.cls-30{fill:#ff648f;}.cls-31{fill:#fc0;}.cls-32{opacity:0.34;}.cls-33{fill:#ff3666;}.cls-34{fill:#ff5eb7;}.cls-35{fill:#c32638;}.cls-36{fill:#ff639b;}.cls-37{fill:#e7274c;}.cls-38{fill:#e4e9ff;}.cls-39{fill:#cfcfe5;}.cls-40{fill:#ffd800;}.cls-41{fill:#00f700;}.cls-42{fill:#dde4ee;}.cls-43{fill:#c7d3d4;}.cls-44{fill:#ecf3ee;}.cls-45{fill:#eaf8ff;}.cls-46,.cls-47{fill:#d8e3f0;}.cls-48{fill:#7c2f1f;}.cls-49{fill:#ab411f;}.cls-50{fill:#923f1f;}.cls-51{fill:#c26e1e;}.cls-52{fill:#ac561f;}.cls-53{fill:#cf721e;}.cls-54{fill:#c2641e;}.cls-55{fill:#e4771d;}.cls-56{fill:url(#Degradado_sin_nombre_30);}.cls-57{fill:url(#Degradado_sin_nombre_30-2);}.cls-58{fill:url(#Degradado_sin_nombre_30-3);}.cls-59{fill:#ff547a;}.cls-60{fill:#d8f2ff;}.cls-61{fill:#c8d1f5;}.cls-62{fill:#a9ade4;}.cls-63{fill:#ffefbd;}.cls-64{fill:#fffa00;}.cls-65{fill:#ffd600;}.cls-66{fill:#ffb300;}.cls-67{fill:#ffde00;}.cls-68{fill:#fffb7e;}.cls-69{fill:#ffc200;}</style><linearGradient id="Degradado_sin_nombre_30" x1="25.28" y1="99.19" x2="5.65" y2="79.56" gradientUnits="userSpaceOnUse"><stop offset="0" stop-color="#eaf1ff" stop-opacity="0"/><stop offset="1" stop-color="#eaf1ff"/></linearGradient><linearGradient id="Degradado_sin_nombre_30-2" x1="20.74" y1="104.87" x2="11.61" y2="95.75" xlink:href="#Degradado_sin_nombre_30"/><linearGradient id="Degradado_sin_nombre_30-3" x1="38.66" y1="107.48" x2="32.95" y2="101.77" xlink:href="#Degradado_sin_nombre_30"/></defs><title>laptop</title><g class="cls-1"><g id="Capa_2" data-name="Capa 2"><g id="Controles_bootstrap" data-name="Controles bootstrap"><rect class="cls-2" x="66.24" y="51.34" width="162.8" height="102.05" rx="13.64" ry="13.64"/><rect class="cls-3" x="64.36" y="46.16" width="166.58" height="104.42" rx="13.64" ry="13.64"/><path class="cls-4" d="M221.32,149.27H74a9.61,9.61,0,0,1-9.61-9.61V141A9.61,9.61,0,0,0,74,150.57H221.32a9.62,9.62,0,0,0,9.62-9.61v-1.3A9.62,9.62,0,0,1,221.32,149.27Z"/><rect class="cls-5" x="77.81" y="57.37" width="139.67" height="61.48" rx="4.81" ry="4.81"/><rect class="cls-6" x="77.81" y="57.37" width="139.67" height="60.53" rx="4.81" ry="4.81"/><path class="cls-7" d="M139.08,104.59h6.75a.7.7,0,0,0,.71-.7V97.68a.71.71,0,0,0-.71-.71h-6.75a.71.71,0,0,0-.71.71v6.21A.7.7,0,0,0,139.08,104.59Zm-11.08,0h6.75a.7.7,0,0,0,.71-.7V97.68a.71.71,0,0,0-.71-.71H128a.71.71,0,0,0-.71.71v6.21A.7.7,0,0,0,128,104.59ZM83.66,75.3h6.76a.71.71,0,0,0,.71-.71V68.38a.71.71,0,0,0-.71-.7H83.66a.71.71,0,0,0-.7.7v6.21A.71.71,0,0,0,83.66,75.3ZM128,84.52h6.75a.71.71,0,0,0,.71-.7V77.61a.71.71,0,0,0-.71-.71H128a.71.71,0,0,0-.71.71v6.21A.71.71,0,0,0,128,84.52Zm0,10h6.75a.71.71,0,0,0,.71-.71V87.64a.7.7,0,0,0-.71-.7H128a.7.7,0,0,0-.71.7v6.21A.71.71,0,0,0,128,94.56Zm0-28.24h6.75a.71.71,0,0,0,.71-.71V62.36a.71.71,0,0,0-.71-.71H128a.71.71,0,0,0-.71.71v3.25A.71.71,0,0,0,128,66.32Zm0,9h6.75a.71.71,0,0,0,.71-.71V68.38a.71.71,0,0,0-.71-.7H128a.71.71,0,0,0-.71.7v6.21A.71.71,0,0,0,128,75.3Zm-44.34-9h6.76a.71.71,0,0,0,.71-.71V62.36a.71.71,0,0,0-.71-.71H83.66a.71.71,0,0,0-.7.71v3.25A.71.71,0,0,0,83.66,66.32ZM101.5,76.9H83.66a.71.71,0,0,0-.7.71v6.21a.71.71,0,0,0,.7.7H101.5a.71.71,0,0,0,.71-.7V77.61A.71.71,0,0,0,101.5,76.9Zm0,10H94.75a.7.7,0,0,0-.71.7v6.21a.71.71,0,0,0,.71.71h6.75a.71.71,0,0,0,.71-.71V87.64A.7.7,0,0,0,101.5,86.94ZM90.42,97H83.66a.71.71,0,0,0-.7.71v6.21a.7.7,0,0,0,.7.7h6.76a.7.7,0,0,0,.71-.7V97.68A.71.71,0,0,0,90.42,97ZM101.5,67.68H94.75a.71.71,0,0,0-.71.7v6.21a.71.71,0,0,0,.71.71h6.75a.71.71,0,0,0,.71-.71V68.38A.71.71,0,0,0,101.5,67.68Zm0,29.29H94.75a.71.71,0,0,0-.71.71v6.21a.7.7,0,0,0,.71.7h6.75a.7.7,0,0,0,.71-.7V97.68A.71.71,0,0,0,101.5,97Zm-11.08-10H83.66a.7.7,0,0,0-.7.7v6.21a.71.71,0,0,0,.7.71h6.76a.71.71,0,0,0,.71-.71V87.64A.7.7,0,0,0,90.42,86.94ZM101.5,107H94.75a.7.7,0,0,0-.71.7v6.21a.71.71,0,0,0,.71.71h6.75a.71.71,0,0,0,.71-.71v-6.21A.7.7,0,0,0,101.5,107Zm59.74-12.45H168a.7.7,0,0,0,.7-.71V87.64a.7.7,0,0,0-.7-.7h-6.76a.7.7,0,0,0-.7.7v6.21A.71.71,0,0,0,161.24,94.56Zm-22.16,0h6.75a.71.71,0,0,0,.71-.71V87.64a.7.7,0,0,0-.71-.7h-6.75a.7.7,0,0,0-.71.7v6.21A.71.71,0,0,0,139.08,94.56Zm22.16-10H168a.7.7,0,0,0,.7-.7V77.61a.7.7,0,0,0-.7-.71h-6.76a.71.71,0,0,0-.7.71v6.21A.71.71,0,0,0,161.24,84.52Zm-11.08-18.2h6.76a.7.7,0,0,0,.7-.71V62.36a.7.7,0,0,0-.7-.71h-6.76a.7.7,0,0,0-.7.71v3.25A.7.7,0,0,0,150.16,66.32Zm11.08,38.27H168a.7.7,0,0,0,.7-.7V97.68A.7.7,0,0,0,168,97h-6.76a.71.71,0,0,0-.7.71v6.21A.7.7,0,0,0,161.24,104.59Zm33.25-38.27h6.76a.7.7,0,0,0,.7-.71V62.36a.7.7,0,0,0-.7-.71h-6.76a.7.7,0,0,0-.7.71v3.25A.7.7,0,0,0,194.49,66.32Zm-33.25,0H168a.7.7,0,0,0,.7-.71V62.36a.7.7,0,0,0-.7-.71h-6.76a.71.71,0,0,0-.7.71v3.25A.71.71,0,0,0,161.24,66.32Zm0,9H168a.7.7,0,0,0,.7-.71V68.38a.7.7,0,0,0-.7-.7h-6.76a.71.71,0,0,0-.7.7v6.21A.71.71,0,0,0,161.24,75.3ZM101.5,61.65H94.75a.71.71,0,0,0-.71.71v3.25a.71.71,0,0,0,.71.71h6.75a.71.71,0,0,0,.71-.71V62.36A.71.71,0,0,0,101.5,61.65ZM139.08,75.3h6.75a.71.71,0,0,0,.71-.71V68.38a.71.71,0,0,0-.71-.7h-6.75a.71.71,0,0,0-.71.7v6.21A.71.71,0,0,0,139.08,75.3Zm11.08,0h6.76a.7.7,0,0,0,.7-.71V68.38a.7.7,0,0,0-.7-.7h-6.76a.7.7,0,0,0-.7.7v6.21A.7.7,0,0,0,150.16,75.3Zm-11.08,9.22h6.75a.71.71,0,0,0,.71-.7V77.61a.71.71,0,0,0-.71-.71h-6.75a.71.71,0,0,0-.71.71v6.21A.71.71,0,0,0,139.08,84.52Zm0-18.2h6.75a.71.71,0,0,0,.71-.71V62.36a.71.71,0,0,0-.71-.71h-6.75a.71.71,0,0,0-.71.71v3.25A.71.71,0,0,0,139.08,66.32Zm11.08,38.27h6.76a.7.7,0,0,0,.7-.7V97.68a.7.7,0,0,0-.7-.71h-6.76a.7.7,0,0,0-.7.71v6.21A.7.7,0,0,0,150.16,104.59Zm0-20.07h6.76a.7.7,0,0,0,.7-.7V77.61a.7.7,0,0,0-.7-.71h-6.76a.7.7,0,0,0-.7.71v6.21A.7.7,0,0,0,150.16,84.52Zm0,10h6.76a.7.7,0,0,0,.7-.71V87.64a.7.7,0,0,0-.7-.7h-6.76a.7.7,0,0,0-.7.7v6.21A.7.7,0,0,0,150.16,94.56ZM90.42,107H83.66a.7.7,0,0,0-.7.7v6.21a.71.71,0,0,0,.7.71h6.76a.71.71,0,0,0,.71-.71v-6.21A.7.7,0,0,0,90.42,107Zm99.75-20.07h-6.76a.7.7,0,0,0-.71.7v6.21a.71.71,0,0,0,.71.71h6.76a.71.71,0,0,0,.7-.71V87.64A.7.7,0,0,0,190.17,86.94Zm0-10h-6.76a.71.71,0,0,0-.71.71v6.21a.71.71,0,0,0,.71.7h6.76a.71.71,0,0,0,.7-.7V77.61A.71.71,0,0,0,190.17,76.9ZM201.25,107h-6.76a.7.7,0,0,0-.7.7v6.21a.7.7,0,0,0,.7.71h6.76a.7.7,0,0,0,.7-.71v-6.21A.7.7,0,0,0,201.25,107ZM190.17,61.65h-6.76a.71.71,0,0,0-.71.71v3.25a.71.71,0,0,0,.71.71h6.76a.71.71,0,0,0,.7-.71V62.36A.71.71,0,0,0,190.17,61.65Zm0,6h-6.76a.71.71,0,0,0-.71.7v6.21a.71.71,0,0,0,.71.71h6.76a.71.71,0,0,0,.7-.71V68.38A.71.71,0,0,0,190.17,67.68Zm-11.09,0h-6.75a.71.71,0,0,0-.71.7v6.21a.71.71,0,0,0,.71.71h6.75a.71.71,0,0,0,.71-.71V68.38A.71.71,0,0,0,179.08,67.68Zm0-6h-6.75a.71.71,0,0,0-.71.71v3.25a.71.71,0,0,0,.71.71h6.75a.71.71,0,0,0,.71-.71V62.36A.71.71,0,0,0,179.08,61.65ZM190.17,107h-6.76a.7.7,0,0,0-.71.7v6.21a.71.71,0,0,0,.71.71h6.76a.71.71,0,0,0,.7-.71v-6.21A.7.7,0,0,0,190.17,107Zm0-10h-6.76a.71.71,0,0,0-.71.71v6.21a.7.7,0,0,0,.71.7h6.76a.7.7,0,0,0,.7-.7V97.68A.71.71,0,0,0,190.17,97Zm22.16-29.29H194.49a.7.7,0,0,0-.7.7v6.21a.7.7,0,0,0,.7.71h17.84a.71.71,0,0,0,.71-.71V68.38A.71.71,0,0,0,212.33,67.68Zm0-6h-6.76a.71.71,0,0,0-.7.71v3.25a.71.71,0,0,0,.7.71h6.76a.71.71,0,0,0,.71-.71V62.36A.71.71,0,0,0,212.33,61.65Zm0,15.25H194.49a.7.7,0,0,0-.7.71v6.21a.7.7,0,0,0,.7.7h9.67a.71.71,0,0,1,.71.71v8.62a.71.71,0,0,0,.7.71h6.76a.71.71,0,0,0,.71-.71V77.61A.71.71,0,0,0,212.33,76.9ZM112.59,107h-6.76a.7.7,0,0,0-.7.7v6.21a.7.7,0,0,0,.7.71h6.76a.71.71,0,0,0,.7-.71v-6.21A.7.7,0,0,0,112.59,107Zm88.66-10h-6.76a.7.7,0,0,0-.7.71v6.21a.7.7,0,0,0,.7.7h6.76a.7.7,0,0,0,.7-.7V97.68A.7.7,0,0,0,201.25,97Zm0-10h-6.76a.7.7,0,0,0-.7.7v6.21a.7.7,0,0,0,.7.71h6.76a.7.7,0,0,0,.7-.71V87.64A.7.7,0,0,0,201.25,86.94ZM212.33,107h-6.76a.7.7,0,0,0-.7.7v6.21a.71.71,0,0,0,.7.71h6.76a.71.71,0,0,0,.71-.71v-6.21A.7.7,0,0,0,212.33,107Zm0-10h-6.76a.71.71,0,0,0-.7.71v6.21a.7.7,0,0,0,.7.7h6.76a.7.7,0,0,0,.71-.7V97.68A.71.71,0,0,0,212.33,97Zm-88.66,0h-6.76a.71.71,0,0,0-.7.71v6.21a.7.7,0,0,0,.7.7h6.76a.7.7,0,0,0,.7-.7V97.68A.7.7,0,0,0,123.67,97ZM112.59,67.68h-6.76a.7.7,0,0,0-.7.7v6.21a.7.7,0,0,0,.7.71h6.76a.71.71,0,0,0,.7-.71V68.38A.71.71,0,0,0,112.59,67.68ZM123.67,107h-6.76a.7.7,0,0,0-.7.7v6.21a.71.71,0,0,0,.7.71h6.76a.7.7,0,0,0,.7-.71v-6.21A.7.7,0,0,0,123.67,107ZM112.59,61.65h-6.76a.7.7,0,0,0-.7.71v3.25a.7.7,0,0,0,.7.71h6.76a.71.71,0,0,0,.7-.71V62.36A.71.71,0,0,0,112.59,61.65ZM179.08,76.9h-6.75a.71.71,0,0,0-.71.71v6.21a.71.71,0,0,0,.71.7h6.75a.71.71,0,0,0,.71-.7V77.61A.71.71,0,0,0,179.08,76.9ZM112.59,97h-6.76a.7.7,0,0,0-.7.71v6.21a.7.7,0,0,0,.7.7h6.76a.7.7,0,0,0,.7-.7V97.68A.71.71,0,0,0,112.59,97Zm0-10h-6.76a.7.7,0,0,0-.7.7v6.21a.7.7,0,0,0,.7.71h6.76a.71.71,0,0,0,.7-.71V87.64A.7.7,0,0,0,112.59,86.94Zm0-10h-6.76a.7.7,0,0,0-.7.71v6.21a.7.7,0,0,0,.7.7h6.76a.71.71,0,0,0,.7-.7V77.61A.71.71,0,0,0,112.59,76.9Zm11.08,10h-6.76a.7.7,0,0,0-.7.7v6.21a.71.71,0,0,0,.7.71h6.76a.7.7,0,0,0,.7-.71V87.64A.7.7,0,0,0,123.67,86.94Zm55.41,0h-6.75a.7.7,0,0,0-.71.7v6.21a.71.71,0,0,0,.71.71h6.75a.71.71,0,0,0,.71-.71V87.64A.7.7,0,0,0,179.08,86.94Zm0,20.07H128a.7.7,0,0,0-.71.7v6.21a.71.71,0,0,0,.71.71h51.08a.71.71,0,0,0,.71-.71v-6.21A.7.7,0,0,0,179.08,107Zm0-10h-6.75a.71.71,0,0,0-.71.71v6.21a.7.7,0,0,0,.71.7h6.75a.7.7,0,0,0,.71-.7V97.68A.71.71,0,0,0,179.08,97ZM123.67,76.9h-6.76a.71.71,0,0,0-.7.71v6.21a.71.71,0,0,0,.7.7h6.76a.7.7,0,0,0,.7-.7V77.61A.7.7,0,0,0,123.67,76.9Zm0-9.22h-6.76a.71.71,0,0,0-.7.7v6.21a.71.71,0,0,0,.7.71h6.76a.7.7,0,0,0,.7-.71V68.38A.7.7,0,0,0,123.67,67.68Zm0-6h-6.76a.71.71,0,0,0-.7.71v3.25a.71.71,0,0,0,.7.71h6.76a.7.7,0,0,0,.7-.71V62.36A.7.7,0,0,0,123.67,61.65Z"/><path class="cls-8" d="M83.66,61.78h6.76a.71.71,0,0,1,.71.7v-.12a.71.71,0,0,0-.71-.71H83.66a.71.71,0,0,0-.7.71v.12A.71.71,0,0,1,83.66,61.78Z"/><path class="cls-8" d="M83.66,67.81h6.76a.7.7,0,0,1,.71.7v-.13a.71.71,0,0,0-.71-.7H83.66a.71.71,0,0,0-.7.7v.13A.7.7,0,0,1,83.66,67.81Z"/><path class="cls-8" d="M128,97.1h6.75a.71.71,0,0,1,.71.71v-.13a.71.71,0,0,0-.71-.71H128a.71.71,0,0,0-.71.71v.13A.71.71,0,0,1,128,97.1Z"/><path class="cls-8" d="M128,77h6.75a.71.71,0,0,1,.71.71v-.13a.71.71,0,0,0-.71-.71H128a.71.71,0,0,0-.71.71v.13A.71.71,0,0,1,128,77Z"/><path class="cls-8" d="M128,67.81h6.75a.7.7,0,0,1,.71.7v-.13a.71.71,0,0,0-.71-.7H128a.71.71,0,0,0-.71.7v.13A.7.7,0,0,1,128,67.81Z"/><path class="cls-8" d="M128,87.07h6.75a.7.7,0,0,1,.71.7v-.13a.7.7,0,0,0-.71-.7H128a.7.7,0,0,0-.71.7v.13A.7.7,0,0,1,128,87.07Z"/><path class="cls-8" d="M90.42,107H83.66a.7.7,0,0,0-.7.7v.13a.7.7,0,0,1,.7-.7h6.76a.7.7,0,0,1,.71.7v-.13A.7.7,0,0,0,90.42,107Z"/><path class="cls-8" d="M101.5,86.94H94.75a.7.7,0,0,0-.71.7v.13a.7.7,0,0,1,.71-.7h6.75a.7.7,0,0,1,.71.7v-.13A.7.7,0,0,0,101.5,86.94Z"/><path class="cls-8" d="M90.42,97H83.66a.71.71,0,0,0-.7.71v.13a.71.71,0,0,1,.7-.71h6.76a.71.71,0,0,1,.71.71v-.13A.71.71,0,0,0,90.42,97Z"/><path class="cls-8" d="M128,61.78h6.75a.71.71,0,0,1,.71.7v-.12a.71.71,0,0,0-.71-.71H128a.71.71,0,0,0-.71.71v.12A.71.71,0,0,1,128,61.78Z"/><path class="cls-8" d="M101.5,67.68H94.75a.71.71,0,0,0-.71.7v.13a.7.7,0,0,1,.71-.7h6.75a.7.7,0,0,1,.71.7v-.13A.71.71,0,0,0,101.5,67.68Z"/><path class="cls-8" d="M101.5,76.9H83.66a.71.71,0,0,0-.7.71v.13a.71.71,0,0,1,.7-.71H101.5a.71.71,0,0,1,.71.71v-.13A.71.71,0,0,0,101.5,76.9Z"/><path class="cls-8" d="M90.42,86.94H83.66a.7.7,0,0,0-.7.7v.13a.7.7,0,0,1,.7-.7h6.76a.7.7,0,0,1,.71.7v-.13A.7.7,0,0,0,90.42,86.94Z"/><path class="cls-8" d="M101.5,107H94.75a.7.7,0,0,0-.71.7v.13a.7.7,0,0,1,.71-.7h6.75a.7.7,0,0,1,.71.7v-.13A.7.7,0,0,0,101.5,107Z"/><path class="cls-8" d="M101.5,97H94.75a.71.71,0,0,0-.71.71v.13a.71.71,0,0,1,.71-.71h6.75a.71.71,0,0,1,.71.71v-.13A.71.71,0,0,0,101.5,97Z"/><path class="cls-8" d="M161.24,97.1H168a.7.7,0,0,1,.7.71v-.13A.7.7,0,0,0,168,97h-6.76a.71.71,0,0,0-.7.71v.13A.71.71,0,0,1,161.24,97.1Z"/><path class="cls-8" d="M161.24,77H168a.7.7,0,0,1,.7.71v-.13a.7.7,0,0,0-.7-.71h-6.76a.71.71,0,0,0-.7.71v.13A.71.71,0,0,1,161.24,77Z"/><path class="cls-8" d="M161.24,87.07H168a.7.7,0,0,1,.7.7v-.13a.7.7,0,0,0-.7-.7h-6.76a.7.7,0,0,0-.7.7v.13A.7.7,0,0,1,161.24,87.07Z"/><path class="cls-8" d="M101.5,61.65H94.75a.71.71,0,0,0-.71.71v.12a.71.71,0,0,1,.71-.7h6.75a.71.71,0,0,1,.71.7v-.12A.71.71,0,0,0,101.5,61.65Z"/><path class="cls-8" d="M150.16,61.78h6.76a.7.7,0,0,1,.7.7v-.12a.7.7,0,0,0-.7-.71h-6.76a.7.7,0,0,0-.7.71v.12A.7.7,0,0,1,150.16,61.78Z"/><path class="cls-8" d="M150.16,67.81h6.76a.7.7,0,0,1,.7.7v-.13a.7.7,0,0,0-.7-.7h-6.76a.7.7,0,0,0-.7.7v.13A.7.7,0,0,1,150.16,67.81Z"/><path class="cls-8" d="M194.49,61.78h6.76a.7.7,0,0,1,.7.7v-.12a.7.7,0,0,0-.7-.71h-6.76a.7.7,0,0,0-.7.71v.12A.7.7,0,0,1,194.49,61.78Z"/><path class="cls-8" d="M161.24,67.81H168a.7.7,0,0,1,.7.7v-.13a.7.7,0,0,0-.7-.7h-6.76a.71.71,0,0,0-.7.7v.13A.7.7,0,0,1,161.24,67.81Z"/><path class="cls-8" d="M161.24,61.78H168a.7.7,0,0,1,.7.7v-.12a.7.7,0,0,0-.7-.71h-6.76a.71.71,0,0,0-.7.71v.12A.71.71,0,0,1,161.24,61.78Z"/><path class="cls-8" d="M150.16,77h6.76a.7.7,0,0,1,.7.71v-.13a.7.7,0,0,0-.7-.71h-6.76a.7.7,0,0,0-.7.71v.13A.7.7,0,0,1,150.16,77Z"/><path class="cls-8" d="M139.08,67.81h6.75a.7.7,0,0,1,.71.7v-.13a.71.71,0,0,0-.71-.7h-6.75a.71.71,0,0,0-.71.7v.13A.7.7,0,0,1,139.08,67.81Z"/><path class="cls-8" d="M139.08,77h6.75a.71.71,0,0,1,.71.71v-.13a.71.71,0,0,0-.71-.71h-6.75a.71.71,0,0,0-.71.71v.13A.71.71,0,0,1,139.08,77Z"/><path class="cls-8" d="M139.08,87.07h6.75a.7.7,0,0,1,.71.7v-.13a.7.7,0,0,0-.71-.7h-6.75a.7.7,0,0,0-.71.7v.13A.7.7,0,0,1,139.08,87.07Z"/><path class="cls-8" d="M150.16,87.07h6.76a.7.7,0,0,1,.7.7v-.13a.7.7,0,0,0-.7-.7h-6.76a.7.7,0,0,0-.7.7v.13A.7.7,0,0,1,150.16,87.07Z"/><path class="cls-8" d="M139.08,97.1h6.75a.71.71,0,0,1,.71.71v-.13a.71.71,0,0,0-.71-.71h-6.75a.71.71,0,0,0-.71.71v.13A.71.71,0,0,1,139.08,97.1Z"/><path class="cls-8" d="M139.08,61.78h6.75a.71.71,0,0,1,.71.7v-.12a.71.71,0,0,0-.71-.71h-6.75a.71.71,0,0,0-.71.71v.12A.71.71,0,0,1,139.08,61.78Z"/><path class="cls-8" d="M150.16,97.1h6.76a.7.7,0,0,1,.7.71v-.13a.7.7,0,0,0-.7-.71h-6.76a.7.7,0,0,0-.7.71v.13A.7.7,0,0,1,150.16,97.1Z"/><path class="cls-8" d="M179.08,107H128a.7.7,0,0,0-.71.7v.13a.7.7,0,0,1,.71-.7h51.08a.7.7,0,0,1,.71.7v-.13A.7.7,0,0,0,179.08,107Z"/><path class="cls-8" d="M201.25,107h-6.76a.7.7,0,0,0-.7.7v.13a.7.7,0,0,1,.7-.7h6.76a.7.7,0,0,1,.7.7v-.13A.7.7,0,0,0,201.25,107Z"/><path class="cls-8" d="M190.17,61.65h-6.76a.71.71,0,0,0-.71.71v.12a.71.71,0,0,1,.71-.7h6.76a.71.71,0,0,1,.7.7v-.12A.71.71,0,0,0,190.17,61.65Z"/><path class="cls-8" d="M190.17,76.9h-6.76a.71.71,0,0,0-.71.71v.13a.71.71,0,0,1,.71-.71h6.76a.71.71,0,0,1,.7.71v-.13A.71.71,0,0,0,190.17,76.9Z"/><path class="cls-8" d="M190.17,67.68h-6.76a.71.71,0,0,0-.71.7v.13a.7.7,0,0,1,.71-.7h6.76a.7.7,0,0,1,.7.7v-.13A.71.71,0,0,0,190.17,67.68Z"/><path class="cls-8" d="M190.17,86.94h-6.76a.7.7,0,0,0-.71.7v.13a.7.7,0,0,1,.71-.7h6.76a.7.7,0,0,1,.7.7v-.13A.7.7,0,0,0,190.17,86.94Z"/><path class="cls-8" d="M190.17,107h-6.76a.7.7,0,0,0-.71.7v.13a.7.7,0,0,1,.71-.7h6.76a.7.7,0,0,1,.7.7v-.13A.7.7,0,0,0,190.17,107Z"/><path class="cls-8" d="M190.17,97h-6.76a.71.71,0,0,0-.71.71v.13a.71.71,0,0,1,.71-.71h6.76a.71.71,0,0,1,.7.71v-.13A.71.71,0,0,0,190.17,97Z"/><path class="cls-8" d="M212.33,61.65h-6.76a.71.71,0,0,0-.7.71v.12a.71.71,0,0,1,.7-.7h6.76a.71.71,0,0,1,.71.7v-.12A.71.71,0,0,0,212.33,61.65Z"/><path class="cls-8" d="M201.25,97h-6.76a.7.7,0,0,0-.7.71v.13a.7.7,0,0,1,.7-.71h6.76a.7.7,0,0,1,.7.71v-.13A.7.7,0,0,0,201.25,97Z"/><path class="cls-8" d="M179.08,61.65h-6.75a.71.71,0,0,0-.71.71v.12a.71.71,0,0,1,.71-.7h6.75a.71.71,0,0,1,.71.7v-.12A.71.71,0,0,0,179.08,61.65Z"/><path class="cls-8" d="M212.33,76.9H194.49a.7.7,0,0,0-.7.71v.13a.7.7,0,0,1,.7-.71h17.84a.71.71,0,0,1,.71.71v-.13A.71.71,0,0,0,212.33,76.9Z"/><path class="cls-8" d="M212.33,67.68H194.49a.7.7,0,0,0-.7.7v.13a.7.7,0,0,1,.7-.7h17.84a.7.7,0,0,1,.71.7v-.13A.71.71,0,0,0,212.33,67.68Z"/><path class="cls-8" d="M212.33,97h-6.76a.71.71,0,0,0-.7.71v.13a.71.71,0,0,1,.7-.71h6.76a.71.71,0,0,1,.71.71v-.13A.71.71,0,0,0,212.33,97Z"/><path class="cls-8" d="M201.25,86.94h-6.76a.7.7,0,0,0-.7.7v.13a.7.7,0,0,1,.7-.7h6.76a.7.7,0,0,1,.7.7v-.13A.7.7,0,0,0,201.25,86.94Z"/><path class="cls-8" d="M212.33,107h-6.76a.7.7,0,0,0-.7.7v.13a.7.7,0,0,1,.7-.7h6.76a.7.7,0,0,1,.71.7v-.13A.7.7,0,0,0,212.33,107Z"/><path class="cls-8" d="M123.67,97h-6.76a.71.71,0,0,0-.7.71v.13a.71.71,0,0,1,.7-.71h6.76a.7.7,0,0,1,.7.71v-.13A.7.7,0,0,0,123.67,97Z"/><path class="cls-8" d="M112.59,61.65h-6.76a.7.7,0,0,0-.7.71v.12a.7.7,0,0,1,.7-.7h6.76a.71.71,0,0,1,.7.7v-.12A.71.71,0,0,0,112.59,61.65Z"/><path class="cls-8" d="M123.67,107h-6.76a.7.7,0,0,0-.7.7v.13a.7.7,0,0,1,.7-.7h6.76a.7.7,0,0,1,.7.7v-.13A.7.7,0,0,0,123.67,107Z"/><path class="cls-8" d="M112.59,107h-6.76a.7.7,0,0,0-.7.7v.13a.7.7,0,0,1,.7-.7h6.76a.7.7,0,0,1,.7.7v-.13A.7.7,0,0,0,112.59,107Z"/><path class="cls-8" d="M112.59,67.68h-6.76a.7.7,0,0,0-.7.7v.13a.7.7,0,0,1,.7-.7h6.76a.7.7,0,0,1,.7.7v-.13A.71.71,0,0,0,112.59,67.68Z"/><path class="cls-8" d="M112.59,97h-6.76a.7.7,0,0,0-.7.71v.13a.7.7,0,0,1,.7-.71h6.76a.71.71,0,0,1,.7.71v-.13A.71.71,0,0,0,112.59,97Z"/><path class="cls-8" d="M112.59,76.9h-6.76a.7.7,0,0,0-.7.71v.13a.7.7,0,0,1,.7-.71h6.76a.71.71,0,0,1,.7.71v-.13A.71.71,0,0,0,112.59,76.9Z"/><path class="cls-8" d="M112.59,86.94h-6.76a.7.7,0,0,0-.7.7v.13a.7.7,0,0,1,.7-.7h6.76a.7.7,0,0,1,.7.7v-.13A.7.7,0,0,0,112.59,86.94Z"/><path class="cls-8" d="M179.08,86.94h-6.75a.7.7,0,0,0-.71.7v.13a.7.7,0,0,1,.71-.7h6.75a.7.7,0,0,1,.71.7v-.13A.7.7,0,0,0,179.08,86.94Z"/><path class="cls-8" d="M179.08,97h-6.75a.71.71,0,0,0-.71.71v.13a.71.71,0,0,1,.71-.71h6.75a.71.71,0,0,1,.71.71v-.13A.71.71,0,0,0,179.08,97Z"/><path class="cls-8" d="M179.08,67.68h-6.75a.71.71,0,0,0-.71.7v.13a.7.7,0,0,1,.71-.7h6.75a.7.7,0,0,1,.71.7v-.13A.71.71,0,0,0,179.08,67.68Z"/><path class="cls-8" d="M179.08,76.9h-6.75a.71.71,0,0,0-.71.71v.13a.71.71,0,0,1,.71-.71h6.75a.71.71,0,0,1,.71.71v-.13A.71.71,0,0,0,179.08,76.9Z"/><path class="cls-8" d="M123.67,61.65h-6.76a.71.71,0,0,0-.7.71v.12a.71.71,0,0,1,.7-.7h6.76a.7.7,0,0,1,.7.7v-.12A.7.7,0,0,0,123.67,61.65Z"/><path class="cls-8" d="M123.67,76.9h-6.76a.71.71,0,0,0-.7.71v.13a.71.71,0,0,1,.7-.71h6.76a.7.7,0,0,1,.7.71v-.13A.7.7,0,0,0,123.67,76.9Z"/><path class="cls-8" d="M123.67,67.68h-6.76a.71.71,0,0,0-.7.7v.13a.7.7,0,0,1,.7-.7h6.76a.7.7,0,0,1,.7.7v-.13A.7.7,0,0,0,123.67,67.68Z"/><path class="cls-8" d="M123.67,86.94h-6.76a.7.7,0,0,0-.7.7v.13a.7.7,0,0,1,.7-.7h6.76a.7.7,0,0,1,.7.7v-.13A.7.7,0,0,0,123.67,86.94Z"/><rect class="cls-5" x="126.53" y="121.21" width="41.89" height="24.54" rx="4.81" ry="4.81"/><rect class="cls-6" x="126.53" y="121.21" width="41.89" height="24.32" rx="4.81" ry="4.81"/><rect class="cls-5" x="126.53" y="141.05" width="41.89" height="0.48"/><rect class="cls-9" x="126.53" y="140.93" width="41.89" height="0.48"/><path class="cls-10" d="M227.23,44.5H68.06a3.61,3.61,0,0,1-3.38-2.37L50.27,5a4.3,4.3,0,0,1,4.3-5H240.72A4.47,4.47,0,0,1,245,5.5L230.61,42.13A3.61,3.61,0,0,1,227.23,44.5Z"/><path class="cls-11" d="M54.57.12H240.72a4.39,4.39,0,0,1,4.35,4.43A4.39,4.39,0,0,0,240.72,0H54.57a4.27,4.27,0,0,0-4.35,4.51A4.27,4.27,0,0,1,54.57.12Z"/><path class="cls-12" d="M227.81,46.16H67.48a3.63,3.63,0,0,1-3.4-2.39L50.48,6.18a3.62,3.62,0,0,1,3.41-4.85H241.4a3.62,3.62,0,0,1,3.41,4.85l-13.6,37.59A3.63,3.63,0,0,1,227.81,46.16Z"/><path class="cls-7" d="M241.4,1.33H53.89a3.62,3.62,0,0,0-3.41,4.85l13,36H231.8l13-36A3.62,3.62,0,0,0,241.4,1.33Z"/><polygon class="cls-13" points="54.32 5.71 66.68 40.89 227.9 40.89 240.91 5.71 54.32 5.71"/><path class="cls-11" d="M235.33,30.09l9.5-24.22a3.61,3.61,0,0,0-3.43-4.75H53.89a3.62,3.62,0,0,0-3.61,4l9.08,23.37L51.15,5.73a2.91,2.91,0,0,1,2.74-3.91H241.4a2.91,2.91,0,0,1,2.74,3.91Z"/><path class="cls-14" d="M241.4,2a2.91,2.91,0,0,1,2.74,3.9L230.55,43.53a2.93,2.93,0,0,1-2.74,1.92H67.48a2.93,2.93,0,0,1-2.74-1.92L51.15,5.94A2.91,2.91,0,0,1,53.89,2H241.4m0-.71H53.89a3.62,3.62,0,0,0-3.41,4.85l13.6,37.59a3.63,3.63,0,0,0,3.4,2.39H227.81a3.63,3.63,0,0,0,3.4-2.39l13.6-37.59a3.62,3.62,0,0,0-3.41-4.85Z"/><ellipse class="cls-15" cx="218.51" cy="52.74" rx="3.61" ry="3.7"/><circle class="cls-16" cx="218.51" cy="52.66" r="3.61"/><circle class="cls-3" cx="218.51" cy="52.66" r="2.97"/><path class="cls-15" d="M218.51,55.56a3,3,0,0,1-3-2.94s0,0,0,0a3,3,0,0,0,5.94,0v0A3,3,0,0,1,218.51,55.56Z"/><polygon class="cls-17" points="57.64 15.15 237.42 15.15 240.91 5.71 54.32 5.71 57.64 15.15"/><polygon class="cls-18" points="240.79 6.03 240.91 5.71 54.32 5.71 54.44 6.03 240.79 6.03"/><ellipse class="cls-19" cx="61.21" cy="10.67" rx="2.12" ry="2.91" transform="translate(16.41 53.72) rotate(-53.74)"/><ellipse class="cls-20" cx="61.19" cy="10.61" rx="2.1" ry="2.88" transform="translate(18.08 55.31) rotate(-55.87)"/><ellipse class="cls-21" cx="61.19" cy="10.61" rx="1.48" ry="2.03" transform="translate(18.08 55.31) rotate(-55.87)"/><path class="cls-22" d="M60.68,9A2.58,2.58,0,0,1,63,10.64v0a2.59,2.59,0,0,0-2.34-1.67,1.21,1.21,0,0,0-1.25,1.67v0A1.22,1.22,0,0,1,60.68,9Z"/><ellipse class="cls-19" cx="67.76" cy="10.67" rx="2.12" ry="2.91" transform="translate(19.08 58.99) rotate(-53.74)"/><ellipse class="cls-20" cx="67.74" cy="10.61" rx="2.1" ry="2.88" transform="translate(20.95 60.72) rotate(-55.87)"/><ellipse class="cls-23" cx="67.74" cy="10.61" rx="1.48" ry="2.03" transform="translate(20.95 60.72) rotate(-55.87)"/><path class="cls-24" d="M67.22,9a2.59,2.59,0,0,1,2.32,1.64,0,0,0,0,0,0,0A2.57,2.57,0,0,0,67.2,8.94a1.22,1.22,0,0,0-1.26,1.67l0,0A1.21,1.21,0,0,1,67.22,9Z"/><ellipse class="cls-19" cx="74.3" cy="10.67" rx="2.12" ry="2.91" transform="translate(21.76 64.27) rotate(-53.74)"/><ellipse class="cls-20" cx="74.28" cy="10.61" rx="2.1" ry="2.88" transform="translate(23.82 66.14) rotate(-55.87)"/><ellipse class="cls-25" cx="74.28" cy="10.61" rx="1.48" ry="2.03" transform="translate(23.82 66.14) rotate(-55.87)"/><path class="cls-26" d="M73.77,9a2.59,2.59,0,0,1,2.32,1.64,0,0,0,0,1,0,0,2.58,2.58,0,0,0-2.33-1.67,1.22,1.22,0,0,0-1.26,1.67v0A1.22,1.22,0,0,1,73.77,9Z"/><line class="cls-27" x1="150.14" y1="23.74" x2="150.14" y2="20.38"/><path class="cls-27" d="M139.24,21.44H65.86a1.06,1.06,0,0,1,0-2.12h73.38a1.06,1.06,0,1,1,0,2.12Z"/><path class="cls-28" d="M153.54,21.44h-8.6a1.06,1.06,0,0,1,0-2.12h8.6a1.06,1.06,0,1,1,0,2.12Z"/><path class="cls-27" d="M182.7,21.44H158.89a1.06,1.06,0,0,1,0-2.12H182.7a1.06,1.06,0,1,1,0,2.12Z"/><path class="cls-29" d="M197.87,21.44h-4.79a1.06,1.06,0,0,1,0-2.12h4.79a1.06,1.06,0,1,1,0,2.12Z"/><path class="cls-29" d="M206.09,21.44H201.3a1.06,1.06,0,0,1,0-2.12h4.79a1.06,1.06,0,1,1,0,2.12Z"/><path class="cls-28" d="M80.11,26.35H67.7a1.06,1.06,0,0,1,0-2.12H80.11a1.06,1.06,0,1,1,0,2.12Z"/><path class="cls-27" d="M111.94,26.35H87a1.06,1.06,0,0,1,0-2.12h24.9a1.06,1.06,0,0,1,0,2.12Z"/><path class="cls-28" d="M160.54,26.35H119a1.06,1.06,0,0,1,0-2.12h41.53a1.06,1.06,0,1,1,0,2.12Z"/><path class="cls-30" d="M96.22,32.44H69.54a1.06,1.06,0,0,1,0-2.12H96.22a1.06,1.06,0,1,1,0,2.12Z"/><path class="cls-30" d="M105.13,32.44h-2.92a1.06,1.06,0,1,1,0-2.12h2.92a1.06,1.06,0,0,1,0,2.12Z"/><path class="cls-30" d="M116.21,32.44h-4.27a1.06,1.06,0,0,1,0-2.12h4.27a1.06,1.06,0,1,1,0,2.12Z"/><path class="cls-30" d="M127.29,32.44h-6.12a1.06,1.06,0,0,1,0-2.12h6.12a1.06,1.06,0,0,1,0,2.12Z"/><path class="cls-30" d="M173.43,26.35h-7.86a1.06,1.06,0,0,1,0-2.12h7.86a1.06,1.06,0,1,1,0,2.12Z"/><path class="cls-30" d="M195.47,26.35H178.34a1.06,1.06,0,0,1,0-2.12h17.13a1.06,1.06,0,1,1,0,2.12Z"/><path class="cls-31" d="M90.13,37.94H71.07a1.06,1.06,0,1,1,0-2.11H90.13a1.06,1.06,0,1,1,0,2.11Z"/><path class="cls-31" d="M225.49,33.62H182.7a1.06,1.06,0,0,1,0-2.12h42.79a1.06,1.06,0,1,1,0,2.12Z"/><path class="cls-31" d="M223.13,37.94h-6.67a1.06,1.06,0,1,1,0-2.11h6.67a1.06,1.06,0,1,1,0,2.11Z"/><path class="cls-31" d="M213,37.94h-5.82a1.06,1.06,0,1,1,0-2.11H213a1.06,1.06,0,0,1,0,2.11Z"/><g class="cls-32"><polygon class="cls-13" points="175.2 5.71 111.4 5.71 76.23 40.89 140.03 40.89 175.2 5.71"/><polygon class="cls-13" points="221.63 5.71 195.23 5.71 160.05 40.89 186.46 40.89 221.63 5.71"/><polygon class="cls-13" points="240.58 6.61 240.91 5.71 234.2 5.71 199.03 40.89 206.3 40.89 240.58 6.61"/></g><path class="cls-33" d="M242.21,92.43h38.35a4.91,4.91,0,0,1,4.91,4.91V146.9a4.91,4.91,0,0,1-4.91,4.91H242.21a0,0,0,0,1,0,0V92.43A0,0,0,0,1,242.21,92.43Z"/><path class="cls-34" d="M282,92.43h-.14a3.46,3.46,0,0,1,3.46,3.46v52.46a3.46,3.46,0,0,1-3.46,3.46H282a3.46,3.46,0,0,0,3.46-3.46V95.89A3.46,3.46,0,0,0,282,92.43Z"/><rect class="cls-35" x="242.21" y="92.43" width="7.32" height="59.39"/><rect class="cls-36" x="249.53" y="92.43" width="0.79" height="59.39" transform="translate(499.85 244.24) rotate(180)"/><rect class="cls-37" x="273.74" y="92.43" width="4.93" height="59.39"/><rect class="cls-38" x="274.35" y="91.87" width="4.93" height="60.5"/><rect class="cls-11" x="274.35" y="91.87" width="0.37" height="60.5"/><rect class="cls-11" x="275.17" y="91.87" width="0.05" height="60.5"/><rect class="cls-39" x="275.22" y="91.87" width="0.11" height="60.5"/><rect class="cls-11" x="275.86" y="91.87" width="0.05" height="60.5"/><rect class="cls-39" x="275.91" y="91.87" width="0.11" height="60.5"/><rect class="cls-11" x="276.56" y="91.87" width="0.05" height="60.5"/><rect class="cls-39" x="276.61" y="91.87" width="0.11" height="60.5"/><rect class="cls-11" x="277.26" y="91.87" width="0.05" height="60.5"/><rect class="cls-39" x="277.31" y="91.87" width="0.11" height="60.5"/><rect class="cls-11" x="277.96" y="91.87" width="0.05" height="60.5"/><rect class="cls-39" x="278.01" y="91.87" width="0.11" height="60.5"/><rect class="cls-11" x="278.66" y="91.87" width="0.05" height="60.5"/><rect class="cls-39" x="278.71" y="91.87" width="0.11" height="60.5"/><rect class="cls-40" x="252.27" y="142.65" width="12.15" height="6.23"/><rect class="cls-40" x="252.27" y="140.38" width="12.15" height="1.45"/><rect class="cls-41" x="252.27" y="138.11" width="6.08" height="1.45"/><circle class="cls-42" cx="25.97" cy="100.78" r="25.97"/><path class="cls-43" d="M46.86,98a21.13,21.13,0,1,0,0,8.22h2.72a4.15,4.15,0,0,0,1.89-.46,26.6,26.6,0,0,0,.48-5c0-.69,0-1.37-.09-2a4.07,4.07,0,0,0-2.28-.7Z"/><path class="cls-44" d="M26,75.24a26,26,0,0,1,26,25.76v-.22a26,26,0,0,0-51.94,0A1.62,1.62,0,0,0,0,101,26,26,0,0,1,26,75.24Z"/><rect class="cls-11" x="39.1" y="96.71" width="14.58" height="8.22" rx="4.11" ry="4.11"/><circle class="cls-45" cx="26.12" cy="100.78" r="21.14"/><path class="cls-11" d="M26.12,79.85a21.14,21.14,0,0,1,21.14,21v-.11a21.14,21.14,0,0,0-42.28,0v.11A21.14,21.14,0,0,1,26.12,79.85Z"/><ellipse class="cls-11" cx="26.12" cy="100.92" rx="18.55" ry="18.68"/><circle class="cls-46" cx="26.12" cy="100.78" r="18.55"/><circle class="cls-47" cx="26.12" cy="100.78" r="17.13"/><circle class="cls-48" cx="26.12" cy="100.78" r="16.75"/><path class="cls-49" d="M26.12,84.21a16.76,16.76,0,0,1,16.75,16.66v-.09a16.75,16.75,0,0,0-33.5,0v.09A16.76,16.76,0,0,1,26.12,84.21Z"/><circle class="cls-50" cx="26.12" cy="100.78" r="12.98"/><path class="cls-51" d="M26.12,87.91a13,13,0,0,1,13,12.93v-.06a13,13,0,0,0-26,0s0,0,0,.06A13,13,0,0,1,26.12,87.91Z"/><circle class="cls-52" cx="26.12" cy="100.78" r="7.79"/><path class="cls-53" d="M26.12,93.08a7.79,7.79,0,0,1,7.79,7.74v0a7.79,7.79,0,1,0-15.58,0v0A7.78,7.78,0,0,1,26.12,93.08Z"/><circle class="cls-54" cx="26.12" cy="100.78" r="3.17"/><path class="cls-55" d="M26.12,97.73a3.16,3.16,0,0,1,3.16,3.11v-.06a3.17,3.17,0,0,0-6.33,0s0,0,0,.06A3.16,3.16,0,0,1,26.12,97.73Z"/><circle class="cls-56" cx="21.59" cy="95.5" r="8.45"/><circle class="cls-57" cx="19.02" cy="103.16" r="3.93"/><circle class="cls-58" cx="37.59" cy="106.41" r="2.46"/><rect class="cls-59" x="277.97" y="155.47" width="10.72" height="7.05" rx="3.53" ry="3.53"/><path class="cls-60" d="M283.53,160.19l-.74,2.36-37.11.08a1.18,1.18,0,0,1-1.18-1.18h0a1.18,1.18,0,0,1,1.18-1.18Z"/><path class="cls-61" d="M283.53,157.83v2.36l-37.85.08a1.18,1.18,0,0,1-1.18-1.18h0a1.17,1.17,0,0,1,1.17-1.18Z"/><path class="cls-62" d="M282.78,155.47l.75,2.36-37.86.08a1.18,1.18,0,0,1-1.18-1.18h0a1.18,1.18,0,0,1,1.18-1.18Z"/><path class="cls-63" d="M243.15,155.68l-9.07,2.85a.61.61,0,0,0,0,1.18l9.13,2.81,1.63-3.42Z"/><path class="cls-64" d="M281.55,160.19l-.74,2.36-37.11.08a1.18,1.18,0,0,1-1.18-1.18h0a1.17,1.17,0,0,1,1.17-1.18Z"/><path class="cls-65" d="M281.54,157.83v2.36l-37.86.08a1.18,1.18,0,0,1-1.18-1.18h0a1.18,1.18,0,0,1,1.18-1.18Z"/><path class="cls-66" d="M280.8,155.47l.74,2.36-37.85.08a1.18,1.18,0,0,1-1.18-1.18h0a1.18,1.18,0,0,1,1.18-1.18Z"/><path class="cls-67" d="M233.86,159.71l4.44,1.3a5.2,5.2,0,0,0,.44-1.89,4,4,0,0,0-.38-1.69l-4.5,1.1A.61.61,0,0,0,233.86,159.71Z"/><path class="cls-68" d="M233.79,159.08c-.12,0-.12.17.08.18l4.84.39a2.22,2.22,0,0,0,0-.51Z"/><path class="cls-69" d="M233.86,158.53l-.1,0h0l-.08.05h0l-.14.14v0l0,.05,0,0s0,0,0,0l0,0h0a.62.62,0,0,1,.38-.21l4.76-.78a7.87,7.87,0,0,0-.29-.75Z"/><path class="cls-68" d="M242.52,161.45a1.18,1.18,0,0,0,1.18,1.18l37.11-.08.37-1.18Z"/><path class="cls-68" d="M243.69,160.27l37.86-.08v-.13l-38.38.09A1.17,1.17,0,0,0,243.69,160.27Z"/><path class="cls-68" d="M243.69,157.91l37.85-.08,0-.13-38.34.09A1.14,1.14,0,0,0,243.69,157.91Z"/><path class="cls-68" d="M242.51,156.73a1.18,1.18,0,0,0,1.18,1.18h.08a1.18,1.18,0,1,1,0-2.36h-.08A1.18,1.18,0,0,0,242.51,156.73Z"/><path class="cls-68" d="M242.51,159.11a1.17,1.17,0,0,0,1.18,1.17h.09a1.18,1.18,0,0,1,0-2.36h-.08A1.19,1.19,0,0,0,242.51,159.11Z"/><path class="cls-68" d="M242.52,161.45a1.18,1.18,0,0,0,1.18,1.18h.08a1.18,1.18,0,1,1,0-2.36h-.09A1.17,1.17,0,0,0,242.52,161.45Z"/></g></g></g></svg>