<svg xmlns="http://www.w3.org/2000/svg" viewBox="0 0 222.48 34.87"><defs><style>.cls-1{fill:#606060;}.cls-2{opacity:0.96;}.cls-3{fill:#fff;}.cls-4{fill:#d6d6d6;}.cls-5{fill:#e8e8e8;}.cls-6{fill:none;stroke:#e8e8e8;stroke-miterlimit:10;stroke-width:5px;}</style></defs><title>logov2</title><g id="Capa_2" data-name="Capa 2"><g id="Controles_bootstrap" data-name="Controles bootstrap"><path class="cls-1" d="M225.42,44.6H205V41.06h20.41Z" transform="translate(-2.94 -16.73)"/><g class="cls-2"><path class="cls-3" d="M44.64,35.41a9.28,9.28,0,0,1-3,6.58,10.35,10.35,0,0,1-7.12,2.4A9.35,9.35,0,0,1,26.92,41c-1.84-2.24-2.77-5.3-2.77-9.2V30.26a16,16,0,0,1,1.28-6.58,9.73,9.73,0,0,1,3.65-4.36,9.93,9.93,0,0,1,5.51-1.52,10.06,10.06,0,0,1,7,2.4,9.93,9.93,0,0,1,3.07,6.73H39.5a5.48,5.48,0,0,0-1.36-3.63,4.93,4.93,0,0,0-3.55-1.13,4.37,4.37,0,0,0-3.87,1.91Q29.43,26,29.4,30V32q0,4.2,1.23,6.13A4.28,4.28,0,0,0,34.53,40a5,5,0,0,0,3.58-1.13,5.12,5.12,0,0,0,1.35-3.49Z" transform="translate(-2.94 -16.73)"/><path class="cls-3" d="M45.2,34.24a11.72,11.72,0,0,1,1.07-5.1,8,8,0,0,1,3.09-3.47A8.74,8.74,0,0,1,54,24.44a8.4,8.4,0,0,1,6.18,2.39,9.67,9.67,0,0,1,2.66,6.47l0,1.31a10.23,10.23,0,0,1-2.4,7.1,8.24,8.24,0,0,1-6.44,2.68,8.27,8.27,0,0,1-6.45-2.67,10.44,10.44,0,0,1-2.41-7.25Zm5,.36a7.39,7.39,0,0,0,1,4.19,3.53,3.53,0,0,0,5.7,0,8,8,0,0,0,1-4.58,7.3,7.3,0,0,0-1-4.17A3.3,3.3,0,0,0,54,28.59a3.24,3.24,0,0,0-2.83,1.46A8.27,8.27,0,0,0,50.19,34.6ZM55,16.73h5.44l-4.79,5.51h-4Z" transform="translate(-2.94 -16.73)"/><path class="cls-3" d="M63.46,34.27a11.82,11.82,0,0,1,2-7.16,6.28,6.28,0,0,1,5.36-2.67,5.63,5.63,0,0,1,4.5,2.1V16.73h5V44H75.78l-.24-2a5.8,5.8,0,0,1-4.8,2.4,6.29,6.29,0,0,1-5.29-2.68Q63.46,39,63.46,34.27Zm5,.39a7.75,7.75,0,0,0,.91,4.14A3,3,0,0,0,72,40.25a3.33,3.33,0,0,0,3.26-2v-7.6a3.28,3.28,0,0,0-3.23-2Q68.45,28.62,68.45,34.66Z" transform="translate(-2.94 -16.73)"/><path class="cls-3" d="M82.39,19.82a2.57,2.57,0,0,1,.75-1.9,3.18,3.18,0,0,1,4.08,0,2.77,2.77,0,0,1,0,3.82,3.11,3.11,0,0,1-4,0A2.51,2.51,0,0,1,82.39,19.82ZM87.69,44h-5V24.8h5Z" transform="translate(-2.94 -16.73)"/><path class="cls-3" d="M89.34,34.27a11.5,11.5,0,0,1,2-7.12,6.59,6.59,0,0,1,5.52-2.71,5.75,5.75,0,0,1,4.78,2.17l.21-1.81h4.52V43.39a8.42,8.42,0,0,1-1.11,4.39,7.27,7.27,0,0,1-3.14,2.84,10.6,10.6,0,0,1-4.73,1,10,10,0,0,1-4-.84,7,7,0,0,1-3-2.18l2.21-3.13a5.75,5.75,0,0,0,4.52,2.15,4.21,4.21,0,0,0,3.09-1.09,4.15,4.15,0,0,0,1.1-3.1v-1a5.69,5.69,0,0,1-4.54,2,6.55,6.55,0,0,1-5.44-2.71,11.5,11.5,0,0,1-2.08-7.19Zm5,.39a7.25,7.25,0,0,0,1,4.1,3.23,3.23,0,0,0,2.8,1.49,3.43,3.43,0,0,0,3.26-1.77v-8.1a3.42,3.42,0,0,0-3.22-1.76,3.27,3.27,0,0,0-2.83,1.51A8.17,8.17,0,0,0,94.33,34.66Z" transform="translate(-2.94 -16.73)"/><path class="cls-3" d="M107.73,34.24a11.72,11.72,0,0,1,1.07-5.1,8,8,0,0,1,3.08-3.47,8.77,8.77,0,0,1,4.67-1.23,8.36,8.36,0,0,1,6.17,2.39,9.63,9.63,0,0,1,2.67,6.47l0,1.31a10.22,10.22,0,0,1-2.39,7.1,9.1,9.1,0,0,1-12.89,0,10.44,10.44,0,0,1-2.41-7.25Zm5,.36a7.31,7.31,0,0,0,1,4.19,3.53,3.53,0,0,0,5.7,0,8,8,0,0,0,1-4.58,7.3,7.3,0,0,0-1-4.17,3.3,3.3,0,0,0-2.87-1.47,3.24,3.24,0,0,0-2.83,1.46A8.18,8.18,0,0,0,112.72,34.6Z" transform="translate(-2.94 -16.73)"/><path class="cls-4" d="M131.63,26.9a6.17,6.17,0,0,1,5-2.46q6.07,0,6.16,7.27V44h-5V31.86a3.66,3.66,0,0,0-.69-2.45,2.92,2.92,0,0,0-2.29-.79,3.39,3.39,0,0,0-3.18,1.74V44h-5V16.73h5Z" transform="translate(-2.94 -16.73)"/><path class="cls-4" d="M155.64,44a5.75,5.75,0,0,1-.5-1.72,6,6,0,0,1-4.72,2.08,6.49,6.49,0,0,1-4.54-1.64,5.3,5.3,0,0,1-1.81-4.12,5.48,5.48,0,0,1,2.2-4.69,10.62,10.62,0,0,1,6.36-1.66h2.3v-1.1a3.18,3.18,0,0,0-.67-2.13,2.54,2.54,0,0,0-2.09-.8,3,3,0,0,0-2,.62,2.14,2.14,0,0,0-.72,1.71h-5a5.26,5.26,0,0,1,1-3.1,6.66,6.66,0,0,1,2.83-2.23,10.05,10.05,0,0,1,4.11-.81,8,8,0,0,1,5.48,1.79,6.35,6.35,0,0,1,2,5v8.34a9.46,9.46,0,0,0,.75,4.14V44Zm-4.13-3.57a4.17,4.17,0,0,0,2-.51,3.29,3.29,0,0,0,1.38-1.36v-3.3h-1.87c-2.49,0-3.82.88-4,2.66l0,.3a2.1,2.1,0,0,0,.66,1.59A2.5,2.5,0,0,0,151.51,40.46Zm1.9-23.73h5.44l-4.78,5.51H150Z" transform="translate(-2.94 -16.73)"/><path class="cls-4" d="M178.86,34.59A12,12,0,0,1,177,41.8a6.29,6.29,0,0,1-5.35,2.59,5.75,5.75,0,0,1-4.85-2.4l-.23,2H162V16.73h5v9.79a5.64,5.64,0,0,1,4.54-2.08A6.34,6.34,0,0,1,176.92,27c1.3,1.72,1.94,4.15,1.94,7.28Zm-5-.37A7.85,7.85,0,0,0,173,30a3,3,0,0,0-2.68-1.34,3.28,3.28,0,0,0-3.28,2v7.59a3.34,3.34,0,0,0,3.32,2,3.09,3.09,0,0,0,3.17-2.46A13,13,0,0,0,173.88,34.22Z" transform="translate(-2.94 -16.73)"/><path class="cls-4" d="M180.17,19.82a2.57,2.57,0,0,1,.75-1.9,3.18,3.18,0,0,1,4.08,0,2.77,2.77,0,0,1,0,3.82,3.11,3.11,0,0,1-4.05,0A2.51,2.51,0,0,1,180.17,19.82ZM185.47,44h-5V24.8h5Z" transform="translate(-2.94 -16.73)"/><path class="cls-4" d="M193.11,44h-5V16.73h5Z" transform="translate(-2.94 -16.73)"/><path class="cls-5" d="M2.94,25.46,17,34.05H9.34l-6.4-3.7Zm6.4,8.59H17l-14,8.61V37.72Z" transform="translate(-2.94 -16.73)"/><line class="cls-6" x1="201.89" y1="23.13" x2="221.89" y2="23.13"/></g></g></g></svg>