<svg xmlns="http://www.w3.org/2000/svg" viewBox="0 0 585.86 283.12"><defs><style>.cls-1{isolation:isolate;}.cls-2{fill:#c6c6c6;}.cls-3{fill:#393b3d;}.cls-4{fill:#fdfefe;}.cls-5{fill:#fc6454;}.cls-6{fill:#58d05b;}.cls-7{fill:#78d5e4;}.cls-8{fill:#7194bf;}.cls-9{fill:#e5e5e5;}.cls-10{opacity:0.1;mix-blend-mode:overlay;}.cls-11{fill:#fff;}.cls-12{fill:#adadad;}.cls-13{fill:#f07248;}.cls-14{fill:#e55b36;}.cls-15{fill:#f2e8e0;}.cls-16{fill:#fce059;}.cls-17{fill:#f9bd5b;}.cls-18{fill:#d14040;}.cls-19{fill:#89aa59;}.cls-20{fill:#a0e045;}.cls-21{fill:#bfd1d0;}.cls-22{fill:#a6bcbb;}.cls-23{fill:#f4edcb;}.cls-24{fill:#a9d8d5;}.cls-25{fill:#80cec7;}</style></defs><title>new-desk</title><g class="cls-1"><g id="Capa_2" data-name="Capa 2"><g id="Ñëîé_3" data-name="Ñëîé 3"><rect class="cls-2" x="245.38" width="328.48" height="225.39" rx="7.63" ry="7.63"/><rect class="cls-3" x="256.5" y="7.63" width="306.23" height="210.13" rx="7.63" ry="7.63"/><rect class="cls-4" x="304.29" y="28.88" width="40.24" height="4.46"/><rect class="cls-4" x="304.29" y="38.88" width="25.64" height="4.46"/><rect class="cls-4" x="344.29" y="38.88" width="103.12" height="4.46"/><rect class="cls-5" x="457.41" y="38.88" width="54" height="4.46"/><rect class="cls-6" x="314.29" y="48.88" width="65.12" height="4.46"/><rect class="cls-4" x="399.41" y="48.88" width="97.02" height="4.46"/><rect class="cls-5" x="304.29" y="58.88" width="91.56" height="4.46"/><rect class="cls-7" x="404.29" y="58.88" width="65.12" height="4.46"/><rect class="cls-4" x="314.29" y="68.88" width="65.12" height="4.46"/><rect class="cls-4" x="304.29" y="78.88" width="95.12" height="4.46"/><rect class="cls-4" x="304.29" y="88.88" width="65.12" height="4.46"/><rect class="cls-5" x="324.29" y="98.88" width="108.62" height="4.46"/><rect class="cls-4" x="444.29" y="98.88" width="35.12" height="4.46"/><rect class="cls-4" x="494.29" y="98.88" width="35.12" height="4.46"/><rect class="cls-4" x="334.29" y="108.88" width="44.31" height="4.46"/><rect class="cls-5" x="334.29" y="118.88" width="59.11" height="4.46"/><rect class="cls-4" x="414.29" y="118.88" width="65.12" height="4.46"/><rect class="cls-5" x="494.29" y="118.88" width="27.12" height="4.46"/><rect class="cls-4" x="304.29" y="128.88" width="40" height="4.46"/><rect class="cls-4" x="304.29" y="138.88" width="65.12" height="4.46"/><rect class="cls-4" x="334.29" y="148.88" width="118.12" height="4.46"/><rect class="cls-7" x="464.29" y="148.88" width="73.12" height="4.46"/><rect class="cls-4" x="334.29" y="158.88" width="40.12" height="4.46"/><rect class="cls-6" x="384.29" y="158.88" width="40.12" height="4.46"/><rect class="cls-4" x="434.29" y="158.88" width="40.12" height="4.46"/><rect class="cls-4" x="304.29" y="168.88" width="65.12" height="4.46"/><rect class="cls-6" x="324.29" y="178.88" width="65.12" height="4.46"/><rect class="cls-6" x="401.73" y="178.88" width="65.12" height="4.46"/><rect class="cls-4" x="400.35" y="198.88" width="36.5" height="4.46"/><rect class="cls-4" x="324.29" y="188.88" width="96.58" height="4.46"/><rect class="cls-8" x="274.64" y="28.88" width="4.46" height="4.46"/><rect class="cls-8" x="274.64" y="38.88" width="4.46" height="4.46"/><rect class="cls-8" x="274.64" y="48.88" width="4.46" height="4.46"/><rect class="cls-8" x="274.64" y="58.88" width="4.46" height="4.46"/><rect class="cls-8" x="274.64" y="68.88" width="4.46" height="4.46"/><rect class="cls-8" x="274.64" y="78.88" width="4.46" height="4.46"/><rect class="cls-8" x="274.64" y="88.88" width="4.46" height="4.46"/><rect class="cls-8" x="274.64" y="98.88" width="4.46" height="4.46"/><rect class="cls-8" x="274.64" y="108.88" width="4.46" height="4.46"/><rect class="cls-8" x="274.64" y="118.88" width="4.46" height="4.46"/><rect class="cls-8" x="274.64" y="128.88" width="4.46" height="4.46"/><rect class="cls-8" x="274.64" y="138.88" width="4.46" height="4.46"/><rect class="cls-8" x="274.64" y="148.88" width="4.46" height="4.46"/><rect class="cls-8" x="274.64" y="158.88" width="4.46" height="4.46"/><rect class="cls-8" x="274.64" y="168.88" width="4.46" height="4.46"/><rect class="cls-8" x="274.64" y="178.88" width="4.46" height="4.46"/><rect class="cls-8" x="274.64" y="188.88" width="4.46" height="4.46"/><rect class="cls-8" x="274.64" y="198.88" width="4.46" height="4.46"/><rect class="cls-4" x="324.29" y="198.88" width="48.29" height="4.46"/><path class="cls-9" d="M565.86,233.73h-317a20,20,0,0,1-20-20h357A20,20,0,0,1,565.86,233.73Z"/><g class="cls-10"><polygon class="cls-11" points="358.28 217.76 432.91 7.63 404.56 7.63 329.93 217.76 358.28 217.76"/><path class="cls-11" d="M264.13,217.76h13.32L352.08,7.63H264.13a7.66,7.66,0,0,0-7.63,7.64V210.13A7.65,7.65,0,0,0,264.13,217.76Z"/><path class="cls-11" d="M516.43,217.76H555.1a7.66,7.66,0,0,0,7.64-7.63V87.38Z"/></g><g class="cls-10"><polygon class="cls-11" points="413.16 217.76 465.06 217.76 539.69 7.63 487.79 7.63 413.16 217.76"/></g><path class="cls-12" d="M583.16,223.73a19.82,19.82,0,0,0,2.7-10h-357a19.91,19.91,0,0,0,2.69,10Z"/><path class="cls-13" d="M142.55,268.23H19.08A11.33,11.33,0,0,1,7.75,256.9h0a11.33,11.33,0,0,1,11.33-11.33H142.55Z"/><path class="cls-14" d="M135.31,268.23h70V245.57h-70A11.33,11.33,0,0,0,124,256.9h0A11.33,11.33,0,0,0,135.31,268.23Z"/><path class="cls-15" d="M139.09,264h66.26V249H139.09a7.5,7.5,0,0,0-7.5,7.51h0A7.5,7.5,0,0,0,139.09,264Z"/><path class="cls-16" d="M122.54,245.78H18.85A18.86,18.86,0,0,1,0,226.92H0a18.85,18.85,0,0,1,18.85-18.85H122.54Z"/><path class="cls-17" d="M124.51,245.78h71.71V208.07H124.51a18.86,18.86,0,0,0-18.86,18.85h0A18.87,18.87,0,0,0,124.51,245.78Z"/><path class="cls-15" d="M125.06,238.72h71.16v-25H125.06a12.49,12.49,0,0,0-12.49,12.49h0A12.49,12.49,0,0,0,125.06,238.72Z"/><polygon class="cls-18" points="164.67 283.12 155.74 277.88 146.82 283.12 146.82 252.86 164.67 252.86 164.67 283.12"/><polygon class="cls-18" points="187.01 254 178.09 248.75 169.17 254 169.17 223.73 187.01 223.73 187.01 254"/><path class="cls-19" d="M136.14,208.29H44.5A8.26,8.26,0,0,1,36.23,200h0a8.26,8.26,0,0,1,8.27-8.26h91.64Z"/><path class="cls-20" d="M130.64,208.29h65.58V191.77H130.64a8.26,8.26,0,0,0-8.26,8.26h0A8.26,8.26,0,0,0,130.64,208.29Z"/><path class="cls-15" d="M133.49,205.2h62.73V194.25H133.49a5.47,5.47,0,0,0-5.47,5.48h0A5.47,5.47,0,0,0,133.49,205.2Z"/><polygon class="cls-18" points="146.82 216.52 142.36 213.25 137.9 216.52 137.9 197.62 146.82 197.62 146.82 216.52"/><path class="cls-18" d="M58,226.82h0a18.75,18.75,0,0,1,17.11-18.68v-.07H37.61a18.75,18.75,0,0,0-18.76,18.75h0a18.76,18.76,0,0,0,18.76,18.75H75.15v-.08A18.74,18.74,0,0,1,58,226.82Z"/><rect class="cls-21" x="130.32" y="95.09" width="51.7" height="15.14"/><rect class="cls-22" x="130.32" y="98.49" width="51.7" height="11.73"/><rect class="cls-21" x="157.99" y="88.08" width="16.02" height="10.41"/><polygon class="cls-4" points="177.79 189.84 134.54 189.84 126.09 109.22 186.25 109.22 177.79 189.84"/><path class="cls-23" d="M177.79,189.84H134.54l-8.45-80.61L135,146.37a59.18,59.18,0,0,0,42.78,43.47Z"/><rect class="cls-22" x="120.66" y="107.49" width="71.02" height="5.06"/><rect class="cls-21" x="120.66" y="100.77" width="71.02" height="9.25"/><polygon class="cls-24" points="179.78 170.82 184.47 126.14 127.86 126.14 132.55 170.82 179.78 170.82"/><circle class="cls-25" cx="161.29" cy="147.38" r="16.28" transform="translate(-57.15 151.9) rotate(-43.6)"/><path class="cls-25" d="M127.86,126.14l4.69,44.69h47.23l-26.16-4.66A23.08,23.08,0,0,1,135.7,150.5Z"/></g></g></g></svg>