<svg xmlns="http://www.w3.org/2000/svg" viewBox="0 0 290.09 168.32"><defs><style>.cls-1{isolation:isolate;}.cls-2,.cls-23,.cls-24,.cls-3,.cls-43{fill:#fff;}.cls-2{stroke:#595959;}.cls-2,.cls-23,.cls-24,.cls-25,.cls-26,.cls-27,.cls-28,.cls-29,.cls-30,.cls-31,.cls-32,.cls-33,.cls-34,.cls-35,.cls-36,.cls-37,.cls-38,.cls-39,.cls-40,.cls-41,.cls-42,.cls-43{stroke-miterlimit:10;}.cls-2,.cls-23,.cls-43{opacity:0.2;}.cls-3{opacity:0.53;}.cls-25,.cls-4{fill:#00b3ff;}.cls-25,.cls-28,.cls-4,.cls-7{opacity:0.3;}.cls-26,.cls-5{fill:#00e6ff;opacity:0.4;}.cls-6{fill:#3f4344;}.cls-27,.cls-44,.cls-6{opacity:0.81;mix-blend-mode:multiply;}.cls-28,.cls-7{fill:#0042c0;}.cls-29,.cls-8{fill:#ff3d40;}.cls-30,.cls-9{fill:#ff8d8e;}.cls-10,.cls-31{fill:#c32717;}.cls-11,.cls-32{fill:#ffcd00;}.cls-12,.cls-33{fill:#ffec00;}.cls-13,.cls-34{fill:#ffa600;}.cls-14,.cls-35{fill:#ffbc00;}.cls-15,.cls-36{fill:#45d788;}.cls-16,.cls-37{fill:#91f6ab;}.cls-17,.cls-38{fill:#11ab6b;}.cls-18,.cls-20,.cls-21,.cls-22{fill:none;stroke-linecap:round;stroke-linejoin:round;stroke-width:2px;}.cls-18{stroke:#00da8f;}.cls-19,.cls-39{fill:#00da8f;}.cls-20{stroke:#00fcff;}.cls-21{stroke:#ff4f92;}.cls-22{stroke:#ffd600;}.cls-23,.cls-24,.cls-25,.cls-26,.cls-27,.cls-28,.cls-29,.cls-30,.cls-31,.cls-32,.cls-33,.cls-34,.cls-35,.cls-36,.cls-37,.cls-38,.cls-39,.cls-40,.cls-41,.cls-42{stroke:#a0a0a0;}.cls-24,.cls-25,.cls-26,.cls-27,.cls-28,.cls-29,.cls-30,.cls-31,.cls-32,.cls-33,.cls-34,.cls-35,.cls-36,.cls-37,.cls-38,.cls-39,.cls-40,.cls-41,.cls-42{stroke-width:0;}.cls-24{opacity:0.28;}.cls-27{fill:#434647;}.cls-40,.cls-45{fill:#00fcff;}.cls-41,.cls-46{fill:#ff4f92;}.cls-42,.cls-47{fill:#ffd600;}.cls-43{stroke:#686868;}.cls-44{fill:#474b4f;}</style></defs><title>screen-coding</title><g class="cls-1"><g id="Capa_2" data-name="Capa 2"><g id="Controles_bootstrap" data-name="Controles bootstrap"><rect class="cls-2" x="0.5" y="0.99" width="164.03" height="106.48" rx="5.07" ry="5.07"/><path class="cls-3" d="M160.5,106.93H4.53a4,4,0,0,1-4-4v.54a4,4,0,0,0,4,4h156a4,4,0,0,0,4-4v-.54A4,4,0,0,1,160.5,106.93Z"/><path class="cls-4" d="M159.86,0H5.17A4.67,4.67,0,0,0,.5,4.67v1A4.67,4.67,0,0,1,5.17,1H159.86a4.67,4.67,0,0,1,4.67,4.67v-1A4.67,4.67,0,0,0,159.86,0Z"/><path class="cls-4" d="M159.86,1H5.17A4.67,4.67,0,0,0,.5,5.66V18.17h164V5.66A4.67,4.67,0,0,0,159.86,1Z"/><path class="cls-5" d="M159.86,1H5.17A4.67,4.67,0,0,0,.5,5.66v.16A4.67,4.67,0,0,1,5.17,1.16H159.86a4.67,4.67,0,0,1,4.67,4.66V5.66A4.67,4.67,0,0,0,159.86,1Z"/><rect class="cls-5" x="0.5" y="17.48" width="164.03" height="0.69"/><rect class="cls-6" x="7.14" y="23.34" width="151.11" height="78.53" rx="4.18" ry="4.18"/><circle class="cls-7" cx="9.7" cy="9.58" r="4.64"/><path class="cls-5" d="M9.7,14.05A4.64,4.64,0,0,1,5.07,9.49s0,.06,0,.09a4.65,4.65,0,0,0,9.29,0s0-.06,0-.09A4.64,4.64,0,0,1,9.7,14.05Z"/><circle class="cls-4" cx="9.7" cy="9.58" r="3.6"/><circle class="cls-8" cx="9.7" cy="9.58" r="2.94"/><path class="cls-9" d="M9.7,6.72a2.94,2.94,0,0,1,2.94,2.9s0,0,0,0a2.95,2.95,0,0,0-5.89,0s0,0,0,0A2.93,2.93,0,0,1,9.7,6.72Z"/><circle class="cls-10" cx="9.7" cy="9.58" r="1.77"/><path class="cls-9" d="M9.7,7.9a1.77,1.77,0,0,1,1.77,1.73s0,0,0-.05a1.78,1.78,0,0,0-3.55,0,.09.09,0,0,0,0,.05A1.76,1.76,0,0,1,9.7,7.9Z"/><circle class="cls-7" cx="23.15" cy="9.58" r="4.64"/><path class="cls-5" d="M23.15,14.05a4.64,4.64,0,0,1-4.63-4.56s0,.06,0,.09a4.65,4.65,0,0,0,9.29,0s0-.06,0-.09A4.64,4.64,0,0,1,23.15,14.05Z"/><circle class="cls-4" cx="23.15" cy="9.58" r="3.6"/><circle class="cls-11" cx="23.15" cy="9.58" r="2.94"/><path class="cls-12" d="M23.15,6.72a2.94,2.94,0,0,1,2.94,2.9v0a2.94,2.94,0,0,0-5.88,0s0,0,0,0A2.93,2.93,0,0,1,23.15,6.72Z"/><circle class="cls-13" cx="23.15" cy="9.58" r="1.77"/><path class="cls-14" d="M23.15,7.9a1.77,1.77,0,0,1,1.77,1.73s0,0,0-.05a1.78,1.78,0,0,0-3.55,0v.05A1.78,1.78,0,0,1,23.15,7.9Z"/><circle class="cls-7" cx="36.6" cy="9.58" r="4.64"/><path class="cls-5" d="M36.6,14.05A4.64,4.64,0,0,1,32,9.49s0,.06,0,.09a4.65,4.65,0,0,0,9.29,0s0-.06,0-.09A4.64,4.64,0,0,1,36.6,14.05Z"/><circle class="cls-4" cx="36.6" cy="9.58" r="3.6"/><circle class="cls-15" cx="36.6" cy="9.58" r="2.94"/><path class="cls-16" d="M36.6,6.72a2.94,2.94,0,0,1,2.94,2.9v0a2.94,2.94,0,1,0-5.88,0s0,0,0,0A2.93,2.93,0,0,1,36.6,6.72Z"/><circle class="cls-17" cx="36.6" cy="9.58" r="1.77"/><path class="cls-16" d="M36.6,7.9a1.77,1.77,0,0,1,1.77,1.73s0,0,0-.05a1.78,1.78,0,0,0-3.55,0v.05A1.78,1.78,0,0,1,36.6,7.9Z"/><polyline class="cls-18" points="15.11 27.94 11.5 31.55 15.11 35.16"/><polyline class="cls-18" points="24.18 27.94 27.8 31.55 24.19 35.16"/><line class="cls-18" x1="18.12" y1="35.78" x2="20.99" y2="27.94"/><circle class="cls-19" cx="31.63" cy="35.84" r="1.02"/><circle class="cls-19" cx="35.85" cy="35.84" r="1.02"/><circle class="cls-19" cx="40.06" cy="35.84" r="1.02"/><line class="cls-18" x1="13.31" y1="43.18" x2="121.84" y2="43.18"/><line class="cls-18" x1="128.42" y1="43.18" x2="136.78" y2="43.18"/><line class="cls-18" x1="141.48" y1="43.18" x2="152.16" y2="43.18"/><line class="cls-20" x1="13.31" y1="51.72" x2="81.2" y2="51.72"/><line class="cls-20" x1="91.31" y1="51.72" x2="103.48" y2="51.72"/><line class="cls-20" x1="103.48" y1="56.63" x2="70.44" y2="56.63"/><line class="cls-20" x1="65.9" y1="56.63" x2="59.24" y2="56.63"/><line class="cls-20" x1="53.95" y1="56.63" x2="47.29" y2="56.63"/><line class="cls-20" x1="42" y1="56.63" x2="35.35" y2="56.63"/><line class="cls-20" x1="30.06" y1="56.63" x2="23.4" y2="56.63"/><line class="cls-21" x1="126.36" y1="62.6" x2="23.4" y2="62.6"/><line class="cls-20" x1="15.71" y1="56.63" x2="13.31" y2="56.63"/><line class="cls-20" x1="15.71" y1="62.6" x2="13.31" y2="62.6"/><line class="cls-20" x1="15.71" y1="68.57" x2="13.31" y2="68.57"/><line class="cls-20" x1="15.71" y1="74.54" x2="13.31" y2="74.54"/><line class="cls-21" x1="132.6" y1="62.6" x2="146.82" y2="62.6"/><line class="cls-21" x1="23.15" y1="68.57" x2="51.64" y2="68.57"/><line class="cls-21" x1="23.15" y1="74.69" x2="51.64" y2="74.69"/><line class="cls-21" x1="23.15" y1="80.81" x2="51.64" y2="80.81"/><line class="cls-21" x1="23.15" y1="86.92" x2="51.64" y2="86.92"/><line class="cls-22" x1="70.44" y1="86.92" x2="128.42" y2="86.92"/><line class="cls-22" x1="104.81" y1="80.81" x2="128.42" y2="80.81"/><line class="cls-22" x1="119.05" y1="74.54" x2="128.42" y2="74.54"/><rect class="cls-23" x="177.44" y="41.73" width="81.01" height="126.09" rx="5.18" ry="5.18"/><path class="cls-24" d="M254.42,167.35H181.47a4,4,0,0,1-4-4v.47a4,4,0,0,0,4,4h72.95a4,4,0,0,0,4-4v-.47A4,4,0,0,1,254.42,167.35Z"/><path class="cls-25" d="M255.35,41.07H180.54a3.1,3.1,0,0,0-3.1,3.11v.66a3.1,3.1,0,0,1,3.1-3.11h74.81a3.1,3.1,0,0,1,3.1,3.11v-.66A3.1,3.1,0,0,0,255.35,41.07Z"/><path class="cls-25" d="M255.35,41.73H180.54a3.1,3.1,0,0,0-3.1,3.11v8.32h81V44.84A3.1,3.1,0,0,0,255.35,41.73Z"/><path class="cls-26" d="M255.35,41.73H180.54a3.1,3.1,0,0,0-3.1,3.11V45a3.1,3.1,0,0,1,3.1-3.11h74.81a3.1,3.1,0,0,1,3.1,3.11v-.11A3.1,3.1,0,0,0,255.35,41.73Z"/><rect class="cls-26" x="177.44" y="52.7" width="81.01" height="0.46"/><rect class="cls-27" x="181.86" y="56.59" width="72.43" height="107.5" rx="4.18" ry="4.18"/><circle class="cls-28" cx="183.56" cy="47.45" r="3.09"/><path class="cls-26" d="M183.56,50.42a3.08,3.08,0,0,1-3.08-3s0,0,0,.06a3.09,3.09,0,0,0,6.18,0s0,0,0-.06A3.08,3.08,0,0,1,183.56,50.42Z"/><circle class="cls-25" cx="183.56" cy="47.45" r="2.39"/><circle class="cls-29" cx="183.56" cy="47.45" r="1.96"/><path class="cls-30" d="M183.56,45.55a2,2,0,0,1,1.95,1.92v0a2,2,0,0,0-3.92,0v0A2,2,0,0,1,183.56,45.55Z"/><circle class="cls-31" cx="183.56" cy="47.45" r="1.18"/><path class="cls-30" d="M183.56,46.33a1.18,1.18,0,0,1,1.18,1.15v0a1.18,1.18,0,0,0-2.36,0v0A1.18,1.18,0,0,1,183.56,46.33Z"/><circle class="cls-28" cx="192.5" cy="47.45" r="3.09"/><path class="cls-26" d="M192.5,50.42a3.09,3.09,0,0,1-3.08-3v.06a3.09,3.09,0,0,0,6.17,0v-.06A3.09,3.09,0,0,1,192.5,50.42Z"/><circle class="cls-25" cx="192.5" cy="47.45" r="2.39"/><circle class="cls-32" cx="192.5" cy="47.45" r="1.96"/><path class="cls-33" d="M192.5,45.55a2,2,0,0,1,2,1.92v0a2,2,0,1,0-3.91,0v0A2,2,0,0,1,192.5,45.55Z"/><circle class="cls-34" cx="192.5" cy="47.45" r="1.18"/><path class="cls-35" d="M192.5,46.33a1.18,1.18,0,0,1,1.18,1.15v0a1.18,1.18,0,0,0-2.36,0v0A1.17,1.17,0,0,1,192.5,46.33Z"/><circle class="cls-28" cx="201.45" cy="47.45" r="3.09"/><path class="cls-26" d="M201.45,50.42a3.08,3.08,0,0,1-3.08-3s0,0,0,.06a3.09,3.09,0,0,0,6.18,0s0,0,0-.06A3.08,3.08,0,0,1,201.45,50.42Z"/><circle class="cls-25" cx="201.45" cy="47.45" r="2.39"/><circle class="cls-36" cx="201.45" cy="47.45" r="1.96"/><path class="cls-37" d="M201.45,45.55a2,2,0,0,1,2,1.92v0a2,2,0,1,0-3.91,0v0A2,2,0,0,1,201.45,45.55Z"/><circle class="cls-38" cx="201.45" cy="47.45" r="1.18"/><path class="cls-37" d="M201.45,46.33a1.18,1.18,0,0,1,1.18,1.15v0a1.18,1.18,0,1,0-2.36,0v0A1.18,1.18,0,0,1,201.45,46.33Z"/><path class="cls-39" d="M236.19,70.4H186a.61.61,0,1,1,0-1.22h50.23a.61.61,0,1,1,0,1.22Z"/><path class="cls-39" d="M244.29,70.4h-3.73a.61.61,0,0,1,0-1.22h3.73a.61.61,0,1,1,0,1.22Z"/><path class="cls-39" d="M250.23,70.4h-2.82a.61.61,0,1,1,0-1.22h2.82a.61.61,0,1,1,0,1.22Z"/><path class="cls-40" d="M214.17,76.08H186a.61.61,0,1,1,0-1.22h28.21a.61.61,0,1,1,0,1.22Z"/><path class="cls-40" d="M224,76.08h-8.09a.61.61,0,1,1,0-1.22H224a.61.61,0,1,1,0,1.22Z"/><path class="cls-40" d="M224,79.35h-5a.62.62,0,0,1,0-1.23h5a.62.62,0,1,1,0,1.23Z"/><path class="cls-40" d="M216.5,79.35h-.58a.62.62,0,0,1,0-1.23h.58a.62.62,0,1,1,0,1.23Z"/><path class="cls-40" d="M213,79.35h-4.43a.62.62,0,0,1,0-1.23H213a.62.62,0,0,1,0,1.23Z"/><path class="cls-40" d="M205,79.35h-4.43a.62.62,0,0,1,0-1.23H205a.62.62,0,0,1,0,1.23Z"/><path class="cls-40" d="M197.1,79.35h-4.43a.62.62,0,0,1,0-1.23h4.43a.62.62,0,0,1,0,1.23Z"/><path class="cls-41" d="M239.19,83.32H192.67a.62.62,0,0,1,0-1.23h46.52a.62.62,0,1,1,0,1.23Z"/><path class="cls-40" d="M187.55,79.35H186a.62.62,0,1,1,0-1.23h1.59a.62.62,0,1,1,0,1.23Z"/><path class="cls-40" d="M187.55,83.32H186a.62.62,0,1,1,0-1.23h1.59a.62.62,0,1,1,0,1.23Z"/><path class="cls-40" d="M187.55,87.29H186a.62.62,0,1,1,0-1.23h1.59a.62.62,0,1,1,0,1.23Z"/><path class="cls-40" d="M187.55,91.26H186A.62.62,0,1,1,186,90h1.59a.62.62,0,1,1,0,1.23Z"/><path class="cls-41" d="M249.13,83.32h-5.79a.62.62,0,0,1,0-1.23h5.79a.62.62,0,0,1,0,1.23Z"/><path class="cls-41" d="M211.45,87.29H192.5a.62.62,0,0,1,0-1.23h18.95a.62.62,0,0,1,0,1.23Z"/><path class="cls-42" d="M240.56,99.49H218.94a.61.61,0,1,1,0-1.22h21.62a.61.61,0,1,1,0,1.22Z"/><path class="cls-42" d="M240.56,95.42h-15.7a.61.61,0,0,1,0-1.22h15.7a.61.61,0,1,1,0,1.22Z"/><path class="cls-42" d="M240.56,91.26h-6.23a.62.62,0,0,1,0-1.23h6.23a.62.62,0,1,1,0,1.23Z"/><path class="cls-41" d="M208.56,64.88H186a.61.61,0,1,1,0-1.22h22.6a.61.61,0,0,1,0,1.22Z"/><path class="cls-42" d="M223.23,109.16H186a.61.61,0,1,1,0-1.22h37.27a.61.61,0,1,1,0,1.22Z"/><path class="cls-42" d="M223.23,114.05H186a.61.61,0,1,1,0-1.22h37.27a.61.61,0,1,1,0,1.22Z"/><path class="cls-42" d="M223.23,119H186a.62.62,0,1,1,0-1.23h37.27a.62.62,0,0,1,0,1.23Z"/><path class="cls-42" d="M223.23,148.18H186a.61.61,0,1,1,0-1.22h37.27a.61.61,0,0,1,0,1.22Z"/><path class="cls-39" d="M231.19,103.48H221a.62.62,0,1,1,0-1.23h10.18a.62.62,0,0,1,0,1.23Z"/><path class="cls-39" d="M250.23,103.48h-14a.62.62,0,1,1,0-1.23h14a.62.62,0,0,1,0,1.23Z"/><path class="cls-39" d="M250.23,109.16h-14a.61.61,0,1,1,0-1.22h14a.61.61,0,1,1,0,1.22Z"/><path class="cls-39" d="M190.55,155.62H186a.62.62,0,1,1,0-1.23h4.59a.62.62,0,0,1,0,1.23Z"/><path class="cls-39" d="M190.55,159.34H186a.62.62,0,1,1,0-1.23h4.59a.62.62,0,0,1,0,1.23Z"/><path class="cls-39" d="M227.89,159.34h-34.6a.62.62,0,0,1,0-1.23h34.6a.62.62,0,0,1,0,1.23Z"/><path class="cls-39" d="M199.55,155.62H195a.62.62,0,0,1,0-1.23h4.59a.62.62,0,1,1,0,1.23Z"/><path class="cls-39" d="M208.56,155.62H204a.62.62,0,0,1,0-1.23h4.6a.62.62,0,0,1,0,1.23Z"/><path class="cls-39" d="M217.56,155.62H213a.62.62,0,0,1,0-1.23h4.59a.62.62,0,0,1,0,1.23Z"/><path class="cls-39" d="M226.57,155.62H222a.62.62,0,0,1,0-1.23h4.6a.62.62,0,0,1,0,1.23Z"/><path class="cls-39" d="M235.57,155.62H231a.62.62,0,0,1,0-1.23h4.59a.62.62,0,0,1,0,1.23Z"/><path class="cls-39" d="M242.74,155.62H240a.62.62,0,0,1,0-1.23h2.76a.62.62,0,0,1,0,1.23Z"/><rect class="cls-43" x="227.32" y="6.54" width="62.27" height="57.08" rx="3.16" ry="3.16"/><path class="cls-4" d="M287.2,6H229.7a2.39,2.39,0,0,0-2.38,2.38v.51a2.38,2.38,0,0,1,2.38-2.38h57.5a2.38,2.38,0,0,1,2.39,2.38V8.41A2.39,2.39,0,0,0,287.2,6Z"/><path class="cls-4" d="M287.2,6.54H229.7a2.38,2.38,0,0,0-2.38,2.38v6.4h62.27V8.92A2.38,2.38,0,0,0,287.2,6.54Z"/><path class="cls-5" d="M287.2,6.54H229.7a2.38,2.38,0,0,0-2.38,2.38V9a2.39,2.39,0,0,1,2.38-2.38h57.5A2.39,2.39,0,0,1,289.59,9V8.92A2.38,2.38,0,0,0,287.2,6.54Z"/><rect class="cls-5" x="227.32" y="14.96" width="62.27" height="0.35"/><rect class="cls-44" x="230.71" y="17.96" width="55.67" height="42.79" rx="2.4" ry="2.4"/><circle class="cls-7" cx="232.02" cy="10.93" r="2.37"/><path class="cls-5" d="M232,13.21a2.36,2.36,0,0,1-2.36-2.33s0,0,0,0a2.38,2.38,0,0,0,4.75,0s0,0,0,0A2.37,2.37,0,0,1,232,13.21Z"/><circle class="cls-4" cx="232.02" cy="10.93" r="1.84"/><circle class="cls-8" cx="232.02" cy="10.93" r="1.5"/><path class="cls-9" d="M232,9.47a1.49,1.49,0,0,1,1.5,1.48v0a1.51,1.51,0,1,0-3,0v0A1.5,1.5,0,0,1,232,9.47Z"/><circle class="cls-10" cx="232.02" cy="10.93" r="0.91"/><path class="cls-9" d="M232,10.07a.9.9,0,0,1,.91.88v0a.91.91,0,1,0-1.81,0v0A.9.9,0,0,1,232,10.07Z"/><circle class="cls-7" cx="238.9" cy="10.93" r="2.37"/><path class="cls-5" d="M238.9,13.21a2.37,2.37,0,0,1-2.37-2.33v0a2.37,2.37,0,1,0,4.74,0v0A2.38,2.38,0,0,1,238.9,13.21Z"/><circle class="cls-4" cx="238.9" cy="10.93" r="1.84"/><circle class="cls-11" cx="238.9" cy="10.93" r="1.5"/><path class="cls-12" d="M238.9,9.47A1.5,1.5,0,0,1,240.4,11v0a1.5,1.5,0,1,0-3,0v0A1.5,1.5,0,0,1,238.9,9.47Z"/><circle class="cls-13" cx="238.9" cy="10.93" r="0.91"/><path class="cls-14" d="M238.9,10.07a.9.9,0,0,1,.9.88v0a.91.91,0,0,0-1.82,0v0A.91.91,0,0,1,238.9,10.07Z"/><circle class="cls-7" cx="245.77" cy="10.93" r="2.37"/><path class="cls-5" d="M245.77,13.21a2.38,2.38,0,0,1-2.37-2.33v0a2.38,2.38,0,0,0,4.75,0s0,0,0,0A2.37,2.37,0,0,1,245.77,13.21Z"/><circle class="cls-4" cx="245.77" cy="10.93" r="1.84"/><circle class="cls-15" cx="245.77" cy="10.93" r="1.5"/><path class="cls-16" d="M245.77,9.47a1.49,1.49,0,0,1,1.5,1.48v0a1.51,1.51,0,1,0-3,0v0A1.5,1.5,0,0,1,245.77,9.47Z"/><circle class="cls-17" cx="245.77" cy="10.93" r="0.91"/><path class="cls-16" d="M245.77,10.07a.91.91,0,0,1,.91.88v0a.91.91,0,1,0-1.81,0v0A.9.9,0,0,1,245.77,10.07Z"/><path class="cls-19" d="M272.47,28.57H233.86a.47.47,0,1,1,0-.94h38.61a.47.47,0,0,1,0,.94Z"/><path class="cls-19" d="M278.7,28.57h-2.86a.47.47,0,1,1,0-.94h2.86a.47.47,0,0,1,0,.94Z"/><path class="cls-19" d="M283.27,28.57H281.1a.47.47,0,1,1,0-.94h2.17a.47.47,0,0,1,0,.94Z"/><path class="cls-45" d="M255.55,32.94H233.86a.48.48,0,0,1-.47-.48.47.47,0,0,1,.47-.47h21.69a.47.47,0,0,1,.47.47A.48.48,0,0,1,255.55,32.94Z"/><path class="cls-45" d="M263.09,32.94h-6.22a.48.48,0,0,1-.47-.48.47.47,0,0,1,.47-.47h6.22a.47.47,0,0,1,.47.47A.48.48,0,0,1,263.09,32.94Z"/><path class="cls-45" d="M263.09,35.45h-3.87a.48.48,0,0,1,0-1h3.87a.48.48,0,0,1,0,1Z"/><path class="cls-45" d="M257.34,35.45h-.44a.48.48,0,0,1,0-1h.44a.48.48,0,0,1,0,1Z"/><path class="cls-45" d="M254.64,35.45h-3.4a.48.48,0,0,1,0-1h3.4a.48.48,0,0,1,0,1Z"/><path class="cls-45" d="M248.53,35.45h-3.4a.48.48,0,0,1,0-1h3.4a.48.48,0,0,1,0,1Z"/><path class="cls-45" d="M242.43,35.45H239a.48.48,0,0,1,0-1h3.41a.48.48,0,0,1,0,1Z"/><path class="cls-46" d="M274.78,38.5H239a.47.47,0,0,1,0-.94h35.76a.47.47,0,1,1,0,.94Z"/><path class="cls-45" d="M235.09,35.45h-1.23a.48.48,0,0,1,0-1h1.23a.48.48,0,0,1,0,1Z"/><path class="cls-45" d="M235.09,38.5h-1.23a.47.47,0,0,1,0-.94h1.23a.47.47,0,0,1,0,.94Z"/><path class="cls-45" d="M235.09,41.55h-1.23a.47.47,0,0,1,0-.94h1.23a.47.47,0,0,1,0,.94Z"/><path class="cls-46" d="M282.42,38.5H278a.47.47,0,0,1,0-.94h4.45a.47.47,0,0,1,0,.94Z"/><path class="cls-46" d="M253.46,41.55H238.9a.47.47,0,0,1,0-.94h14.56a.47.47,0,0,1,0,.94Z"/><path class="cls-47" d="M275.84,45.54H259.22a.47.47,0,0,1,0-.94h16.62a.47.47,0,1,1,0,.94Z"/><path class="cls-47" d="M275.84,43.43h-4.79a.48.48,0,0,1,0-1h4.79a.48.48,0,0,1,0,1Z"/><path class="cls-46" d="M251.24,24.33H233.86a.47.47,0,0,1,0-.94h17.38a.47.47,0,0,1,0,.94Z"/><path class="cls-47" d="M262.51,54.08H233.86a.47.47,0,0,1,0-.94h28.65a.47.47,0,1,1,0,.94Z"/><path class="cls-19" d="M268.63,48.61h-7.82a.48.48,0,0,1-.48-.47.49.49,0,0,1,.48-.48h7.82a.48.48,0,0,1,.47.48A.47.47,0,0,1,268.63,48.61Z"/><path class="cls-19" d="M283.27,48.61h-10.8a.47.47,0,0,1-.47-.47.48.48,0,0,1,.47-.48h10.8a.48.48,0,0,1,.47.48A.47.47,0,0,1,283.27,48.61Z"/><path class="cls-19" d="M283.27,53h-10.8a.47.47,0,0,1,0-.94h10.8a.47.47,0,1,1,0,.94Z"/><path class="cls-19" d="M237.39,57.09h-3.53a.47.47,0,1,1,0-.94h3.53a.47.47,0,1,1,0,.94Z"/><path class="cls-19" d="M266.09,57.09H239.51a.47.47,0,1,1,0-.94h26.58a.47.47,0,1,1,0,.94Z"/></g></g></g></svg>