<svg xmlns="http://www.w3.org/2000/svg" viewBox="0 0 21.43 20.89"><defs><style>.cls-1{fill:#fff;}</style></defs><title>git-icon</title><g id="Capa_2" data-name="Capa 2"><g id="Controles_bootstrap" data-name="Controles bootstrap"><path class="cls-1" d="M7.17,16.82c0,.09-.1.16-.23.16s-.24-.06-.24-.16.1-.15.23-.15S7.17,16.72,7.17,16.82Zm-1.35-.19c0,.09.06.19.19.21a.21.21,0,0,0,.27-.09c0-.08-.06-.18-.19-.22a.22.22,0,0,0-.27.1Zm1.91-.07c-.12,0-.21.11-.2.21a.21.21,0,0,0,.26.11c.12,0,.21-.11.2-.2S7.86,16.54,7.73,16.56ZM10.58,0A10.36,10.36,0,0,0,0,10.54,10.85,10.85,0,0,0,7.32,20.88c.56.1.75-.25.75-.53s0-1.74,0-2.65c0,0-3,.65-3.66-1.29,0,0-.49-1.25-1.2-1.58,0,0-1-.68.07-.66a2.25,2.25,0,0,1,1.66,1.11,2.28,2.28,0,0,0,3.15.9,2.38,2.38,0,0,1,.69-1.45c-2.41-.27-4.85-.62-4.85-4.78a3.28,3.28,0,0,1,1-2.54,4.09,4.09,0,0,1,.11-2.93C6,4.2,8,5.64,8,5.64a10.38,10.38,0,0,1,5.42,0s2.08-1.45,3-1.16a4.05,4.05,0,0,1,.12,2.93A3.35,3.35,0,0,1,17.67,10c0,4.17-2.54,4.51-5,4.78a2.54,2.54,0,0,1,.74,2c0,1.46,0,3.26,0,3.61s.2.63.75.53a10.74,10.74,0,0,0,7.25-10.33A10.59,10.59,0,0,0,10.58,0ZM4.2,14.9c-.06,0,0,.14,0,.23s.17.1.22,0,0-.14,0-.23S4.26,14.84,4.2,14.9Zm-.47-.35c0,.06,0,.13.1.17a.14.14,0,0,0,.19,0c0-.06,0-.13-.1-.17A.17.17,0,0,0,3.73,14.55Zm1.4,1.54c-.07.06,0,.19.06.27s.22.11.28,0,0-.19-.06-.27A.19.19,0,0,0,5.13,16.09Zm-.49-.64c-.07.05-.07.16,0,.26s.19.14.24.1a.2.2,0,0,0,0-.27.18.18,0,0,0-.24-.09Z"/></g></g></svg>