<svg xmlns="http://www.w3.org/2000/svg" viewBox="0 0 21.74 21.74"><defs><style>.cls-1{fill:#fff;}</style></defs><title>save</title><g id="Capa_2" data-name="Capa 2"><g id="Controles_bootstrap" data-name="Controles bootstrap"><path class="cls-1" d="M21.06,4.75,17,.68A2.36,2.36,0,0,0,15.34,0h-13A2.33,2.33,0,0,0,0,2.33V19.41a2.33,2.33,0,0,0,2.33,2.33H19.41a2.33,2.33,0,0,0,2.33-2.33V6.4a2.32,2.32,0,0,0-.68-1.65ZM10.87,18.64A3.11,3.11,0,1,1,14,15.53,3.1,3.1,0,0,1,10.87,18.64ZM15.53,3.86V8.74a.58.58,0,0,1-.58.58H3.69a.58.58,0,0,1-.58-.58V3.69a.58.58,0,0,1,.58-.58H14.78a.58.58,0,0,1,.41.17l.17.17A.55.55,0,0,1,15.53,3.86Z"/></g></g></svg>
